<svg xmlns="http://www.w3.org/2000/svg" width="309.66" height="182.596" viewBox="0 0 309.66 182.596"><g transform="translate(-532.051 -243.431)"><g transform="translate(551.518 243.431)"><path d="M575.2,309.011h22.954l-4.92,16.4H558.3a3.28,3.28,0,0,1-3.14-4.222l8.57-28.569H544.052l4.918-16.395h19.673l4.92-16.395H553.888l4.918-16.4h59.022l-4.918,16.4H589.958l-4.918,16.395h22.953l-4.918,16.395H580.121Zm147.557-49.184h22.953l4.918-16.4H691.607l-4.918,16.4h19.675l-14.756,49.184H671.932l-4.918,16.4h59.024l4.918-16.4H708Zm96.731-16.4h-9.837l-4.918,16.4H791.618l4.918-16.4H780.142l-4.92,16.4H755.549l-4.92,16.395H770.3l-14.755,49.186h16.395L786.7,276.222h22.953l4.918-16.395h0Zm-73.778,49.186-9.836,32.791h8.237a6.557,6.557,0,0,0,6.281-4.673l8.435-28.118Zm45.907,0-8.571,28.569a3.28,3.28,0,0,0,3.14,4.222H794.9l9.838-32.791Zm32.789-49.186-4.918,16.4h9.836l4.92-16.4Zm-147.555,16.4,4.918-16.4h-9.838l-4.918,16.4Zm-9.838-16.4h-9.837l-4.918,16.4H662.1Zm4.918,32.791H635.863l9.838-32.791h-16.4l-24.591,81.977h52.464l4.918-16.4H626.027l4.918-16.395h31.19a6.558,6.558,0,0,0,6.282-4.673Z" transform="translate(-544.052 -243.431)" fill="#fff"/><path d="M559.052,299.348H562.8l-2.809,8.91h-2.472l2.25-7.139h-.026l-5.223,7.139h-2.13l-.722-7.139h-.026l-2.251,7.139h-2.472l2.809-8.91h3.749l.766,6.414Zm18.554,4.454c-.587,1.861-2.273,4.706-7.322,4.706s-4.943-2.845-4.357-4.706,2.273-4.7,7.324-4.7S578.191,301.943,577.606,303.8Zm-4.891-3.007a4.225,4.225,0,0,0-4.078,3.007c-.438,1.385-.133,3.007,2.182,3.007A4.224,4.224,0,0,0,574.9,303.8C575.333,302.417,575.03,300.795,572.715,300.795Zm19.285.8a2.754,2.754,0,0,1-1.812,1.786l-.008.024c1.037.175,1.291,1.2.99,2.159-.375,1.186-1.429,2.7-4.269,2.7h-6.694l2.81-8.91h7.049C591.433,299.348,592.52,299.946,592,301.593Zm-4.54,2.847h-3.5l-.668,2.12h3.762a1.424,1.424,0,0,0,1.421-1.048C588.7,304.813,588.354,304.44,587.46,304.44Zm.792-3.47h-3.2l-.607,1.922H588a1.249,1.249,0,0,0,1.264-.962C589.441,301.369,589.3,300.97,588.252,300.97Zm7.441,7.288h2.552l2.809-8.91H598.5Zm13.759-8.91H606.9l-2.809,8.91h8.273l.558-1.773H607.2Zm8.193,8.91h2.55l2.81-8.91h-2.55Zm10.291-7.213h3.484l-2.274,7.213H631.7l2.274-7.213h3.486l.534-1.7h-9.52Zm18.52,2.183-1.21-3.88h-3l2.326,5.8-.98,3.108h2.552l.98-3.108,5.986-5.8h-3Zm13.987,5.03h8.824l.535-1.7h-6.274l.646-2.045h5.9l.513-1.622h-5.906l.582-1.848h6.221l.535-1.7h-8.771Zm19.824-2.122-.581-6.789h-2.8l1.361,8.91h2.709l6.978-8.91h-2.8Zm22.6-2.334c-.587,1.861-2.273,4.706-7.322,4.706s-4.943-2.845-4.357-4.706,2.273-4.7,7.324-4.7S703.453,301.943,702.867,303.8Zm-4.891-3.007A4.224,4.224,0,0,0,693.9,303.8c-.438,1.385-.133,3.007,2.182,3.007a4.224,4.224,0,0,0,4.078-3.007C700.594,302.417,700.291,300.795,697.976,300.795Zm14.693-1.447h-2.552l-2.81,8.91h8.273l.558-1.773h-5.721Zm17.121,5.116a2.89,2.89,0,0,1-3.119,2.346c-2.342,0-1.917-1.471-1.641-2.346l1.614-5.116h-2.551l-1.8,5.715c-.315,1-.954,3.445,3.846,3.445s5.7-2.446,6.016-3.445l1.8-5.715H731.4Zm8.99-3.419h3.484l-2.274,7.213h2.552l2.274-7.213H748.3l.535-1.7h-9.522Zm12.712,7.213h2.551l2.808-8.91H754.3Zm21.48-4.456c-.586,1.861-2.271,4.706-7.322,4.706s-4.943-2.845-4.355-4.706,2.273-4.7,7.322-4.7S773.56,301.943,772.973,303.8Zm-4.891-3.007A4.224,4.224,0,0,0,764,303.8c-.436,1.385-.133,3.007,2.182,3.007a4.224,4.224,0,0,0,4.078-3.007C770.7,302.417,770.4,300.795,768.082,300.795Zm18.1,4.767h-.026l-2.972-6.214h-2.959l-2.809,8.91h2.472l1.96-6.214h.026l3.157,6.214h2.775l2.81-8.91h-2.474Z" transform="translate(-542.268 -208.8)" fill="#fff"/></g><g transform="translate(532.051 351.46)"><path d="M610.217,310.4,587.957,384.6H571.41l-.057-.216L559.31,339.1,545.662,384.6H535.623A3.567,3.567,0,0,1,532.2,380L553.2,310.029h16.752l.054.224,11.163,47.531,14.328-47.755h14.836Zm52.027,14.341,4.415-14.714H620.4L598.14,384.223l-.112.373h46.259l4.415-14.714H617.97l4.373-14.576h19.584a6.807,6.807,0,0,0,6.56-4.879l2.951-9.835h-24.68l4.754-15.848Zm76.593-14.714-4.414,14.714h20.159l-17.845,59.479-.112.373h15.527l17.957-59.853h20.159l4.415-14.714Z" transform="translate(-532.051 -310.029)" fill="#fff"/><g transform="translate(119.995)"><g transform="translate(19.863)"><path d="M654.718,384.477c2.553-8.883,2.063-17.009-1.455-24.153l-6.174-12.372-5.51-10.923-2.138-4.427c-4.167-8.325-5.136-15.144-3.14-22.113l.133-.461H620l-.016.06c-1.925,6.7-3.095,14.253,1.348,24.139l12,25.813.7,1.679c3.168,6.974,6.372,15.027,4.273,22.358l-.149.519h16.529Z" transform="translate(-618.271 -310.029)" fill="#fff"/></g><g transform="translate(0 41.247)"><path d="M623.081,368.762c2.125-6.776,8.54-13.788,14.787-19.868l-6.24-13.438-9.527,8.612a52.893,52.893,0,0,0-15.88,24.087l-.195.621h17.05Z" transform="translate(-606.026 -335.457)" fill="#fff"/></g><g transform="translate(46.282)"><path d="M651.17,310.029c-2.1,6.962-7.28,14.036-16.307,22.257l-.305.276,6.427,12.738,11.394-10.638c8.266-7.747,13.011-14.945,15.863-24.069l.177-.565Z" transform="translate(-634.558 -310.029)" fill="#fff"/></g></g></g></g></svg>