<svg xmlns="http://www.w3.org/2000/svg" width="107.927" height="136.239" viewBox="0 0 107.927 136.239">
  <g id="catch" transform="translate(-1492.43 -52.106)">
    <path id="Path_1" data-name="Path 1" d="M1499.22,53.881c.386,0,.759.013,1.144,0,.168-.013.322-.026.489-.026.334,0,.347.155.347.81,0,.45-.026.579-.373.579-.54,0-1.067-.026-1.607-.026h-.656a.379.379,0,0,0-.385.386v1.44a.384.384,0,0,0,.385.373h2.186c.591,0,1.209-.026,1.672-.026.347,0,.347.141.347.733,0,.373,0,.656-.334.656-.566,0-1.132-.026-1.684-.026h-2.212a.357.357,0,0,0-.36.347v1.093c0,.977.064,1,1.453,1a16.994,16.994,0,0,0,2.161-.116.984.984,0,0,1,.193-.013c.3,0,.27.476.27.669,0,.772-.116.8-1.041.8-4.27,0-4.437-.064-4.437-2.122V59.127a.373.373,0,0,0-.373-.373h-2.019c-.54,0-1.067.026-1.607.026-.347,0-.347-.244-.347-.617,0-.617.013-.784.322-.784s1.016.039,1.633.039h2.019a.373.373,0,0,0,.373-.373V55.591a.368.368,0,0,0-.386-.373h-.642c-.515,0-1.042.013-1.569.013-.361,0-.425-.064-.425-.476,0-.823,0-.9.411-.9.5,0,1.042.026,1.607.026Zm8.024,5.658c0,1.556.257,1.53,2.019,1.53a25.114,25.114,0,0,0,4.295-.27c.039,0,.09-.013.129-.013.245,0,.257.321.257.707s0,.707-.411.759c-.875.129-3.5.142-4.5.142-.861,0-2.3.051-2.854-.746a4.374,4.374,0,0,1-.334-2.045V55.244a16.508,16.508,0,0,0-.064-1.787v-.1a.133.133,0,0,1,.141-.142c.129,0,.99.18,1.17.219s.386.064.386.193-.193.18-.219.45c-.013.09-.013.334-.013.566v1.878c0,.219.167.322.373.322a11.288,11.288,0,0,0,4.8-1.428.592.592,0,0,1,.206-.09c.116,0,.347.347.5.592.039.052.064.09.09.129a2.153,2.153,0,0,1,.347.592c0,.1-.116.129-.193.129-.051,0-.1-.013-.167-.013-.026,0-.065-.013-.09-.013a1.21,1.21,0,0,0-.463.141,14.214,14.214,0,0,1-4.989,1.222c-.232.013-.412.116-.412.36Zm7.278-4.488c0,.193-.5.527-.656.527-.09,0-.141-.09-.193-.154a11.093,11.093,0,0,0-.81-1.067c-.039-.052-.116-.129-.116-.193,0-.142.527-.476.656-.476A4.813,4.813,0,0,1,1514.522,55.051Zm1.337-.823c0,.206-.5.553-.656.553-.077,0-.129-.09-.18-.154-.27-.373-.54-.733-.836-1.08-.038-.052-.1-.116-.1-.167,0-.167.527-.489.655-.489A5.117,5.117,0,0,1,1515.859,54.228Zm4.222,3.228c0,.579.026,1.17.026,1.749,0,.4-.116.45-.72.45s-.772-.039-.772-.386c0-.6.039-1.2.039-1.8V54.755c0-.347-.026-.682-.039-1.016,0-.077-.013-.155-.013-.232s.026-.129.115-.129c.128,0,.926.116,1.106.141.27.051.45.051.45.167a.287.287,0,0,1-.064.142,1.182,1.182,0,0,0-.142.746c0,.193.013.424.013.72Zm5.041-.5a19.539,19.539,0,0,1-.141,2.739,4.364,4.364,0,0,1-1.569,2.983,5.919,5.919,0,0,1-1.415.9c-.193,0-1.08-.643-1.08-.874,0-.116.244-.219.347-.27a3.632,3.632,0,0,0,2.289-2.842,16.1,16.1,0,0,0,.154-2.482v-2.79a6.854,6.854,0,0,0-.038-.887,1.244,1.244,0,0,1-.026-.219c0-.1.051-.128.154-.128a11.267,11.267,0,0,1,1.273.128c.1.026.257.039.257.155,0,.077-.051.115-.115.18a1.069,1.069,0,0,0-.09.553Zm11.7-.142c.54,0,1.08-.038,1.633-.038.4,0,.385.1.385.707,0,.437,0,.682-.347.682-.566,0-1.119-.026-1.672-.026h-1.685c-.36,0-.373.334-.411.6a5.248,5.248,0,0,1-2.778,4.051,5.948,5.948,0,0,1-1.337.566c-.283,0-.99-.849-.99-1.067,0-.141.244-.193.36-.219a6.079,6.079,0,0,0,1.607-.669,3.8,3.8,0,0,0,1.62-2.34,5.915,5.915,0,0,0,.116-.63.3.3,0,0,0-.309-.3h-2.61c-.528,0-1.068.026-1.608.026-.334,0-.347-.193-.347-.656,0-.592.039-.733.321-.733.553,0,1.093.038,1.634.038Zm-1.9-3.369c.553,0,1.106-.026,1.672-.026.347,0,.334.167.334.8,0,.4.013.579-.347.579-.54,0-1.093-.026-1.646-.026h-2.8c-.553,0-1.106.026-1.646.026-.386,0-.347-.206-.347-.694,0-.54.013-.682.347-.682.553,0,1.106.026,1.672.026Zm11.014,8.41c0,.437.026.862.026,1.3,0,.322-.27.347-.515.347-.72,0-.759-.064-.759-.411,0-.4.026-.81.026-1.209V59.217c0-.064-.026-.193-.154-.193s-.244.116-.334.18a12.2,12.2,0,0,1-2.109,1.247,1.524,1.524,0,0,1-.823-.849c0-.142.155-.206.3-.27a12.1,12.1,0,0,0,5.053-4.153c.065-.1.116-.232.219-.232a2.738,2.738,0,0,1,.758.45c.129.077.36.219.36.386,0,.1-.09.142-.18.155a.626.626,0,0,0-.373.283,15.631,15.631,0,0,1-1.157,1.286.739.739,0,0,0-.335.707ZM1556,53.315c.1.026.334.064.334.206,0,.077-.051.116-.116.167-.245.18-.27.386-.334.849-.026.141-.052.321-.09.527a.633.633,0,0,0-.026.154.25.25,0,0,0,.283.257h.154a2.572,2.572,0,0,1,1.453.283,2.092,2.092,0,0,1,.8,1.877,9.311,9.311,0,0,1-.772,3.935,2.628,2.628,0,0,1-2.43,1.389c-.283,0-.463-.026-.592-.3a2.6,2.6,0,0,1-.231-.926c0-.116.038-.219.18-.219s.321.051.579.051a1.233,1.233,0,0,0,1.35-.8,7.655,7.655,0,0,0,.579-2.906c0-.63-.039-1.17-.823-1.17-.72,0-.862.1-.952.463A14.527,14.527,0,0,1,1553.694,61a11.57,11.57,0,0,1-1.273,1.826.3.3,0,0,1-.219.129c-.232,0-1.055-.489-1.055-.784a.483.483,0,0,1,.18-.3,10.227,10.227,0,0,0,2.3-3.575,4.8,4.8,0,0,0,.322-.977.162.162,0,0,0-.167-.167,10.607,10.607,0,0,0-1.479.45.958.958,0,0,1-.27.09c-.309,0-.527-1.26-.527-1.337,0-.193.218-.193.373-.206.72-.077,1.44-.257,2.147-.386.257-.051.373-.129.411-.4a11.869,11.869,0,0,0,.141-1.659c0-.206-.026-.476-.026-.5,0-.1.039-.193.154-.193S1555.8,53.263,1556,53.315Zm5.35,4.256c0,.3-.811.772-1.068.772-.167,0-.245-.167-.3-.3a9.457,9.457,0,0,0-1.723-2.752.406.406,0,0,1-.116-.219c0-.231.708-.656.913-.656C1559.545,54.421,1561.345,57.25,1561.345,57.571Zm-.193-3.292c0,.206-.45.592-.618.592-.064,0-.128-.09-.18-.141a11,11,0,0,0-.913-.99c-.051-.052-.115-.116-.115-.18,0-.154.462-.54.617-.54A5.129,5.129,0,0,1,1561.152,54.279Zm1.221-.913c0,.205-.463.591-.617.591-.077,0-.116-.064-.18-.141-.3-.347-.591-.669-.913-.99-.052-.039-.129-.116-.129-.18,0-.155.489-.54.618-.54A5.17,5.17,0,0,1,1562.374,53.366Zm7.286,7.612a.457.457,0,0,0-.257.1,13.355,13.355,0,0,1-4.321,2.456,2.034,2.034,0,0,1-.566.141c-.309,0-.656-.746-.656-.951s.206-.257.514-.347a11.507,11.507,0,0,0,4.14-2.16.324.324,0,0,0,.142-.244.418.418,0,0,0-.1-.245,11.53,11.53,0,0,1-1.466-2.122.508.508,0,0,1-.064-.18c0-.206.823-.669,1-.669.116,0,.18.1.27.27a10.842,10.842,0,0,0,1.157,1.749.3.3,0,0,0,.232.141.276.276,0,0,0,.206-.128,7.754,7.754,0,0,0,1.119-1.813c.051-.077.09-.18.193-.18a3.945,3.945,0,0,1,.823.334c.412.219.514.27.514.373s-.141.142-.218.167c-.218.038-.244.09-.386.347a10.871,10.871,0,0,1-1.157,1.685.32.32,0,0,0-.1.231.311.311,0,0,0,.129.244,12.082,12.082,0,0,0,4.257,2.327c.129.039.283.1.283.257,0,.18-.36.977-.758.977a9.646,9.646,0,0,1-1.607-.656,13.759,13.759,0,0,1-3.06-1.994A.4.4,0,0,0,1569.659,60.979Zm-1.852-5.992c-.077.013-.167.039-.167.129a.153.153,0,0,0,.1.129c.141.077.617.322.617.476,0,.129-.193.116-.283.129-.116,0-.18.09-.258.167a11.183,11.183,0,0,1-2.546,2.186.835.835,0,0,1-.4.167c-.283,0-.772-.54-.772-.772,0-.167.193-.244.309-.309a9.64,9.64,0,0,0,2.456-2.045.193.193,0,0,0,.051-.116c0-.1-.09-.128-.18-.141h-.81c-.527,0-1.054.026-1.582.026-.347,0-.334-.129-.334-.617s-.013-.617.334-.617c.527,0,1.055.026,1.582.026h2.649c.257,0,.36-.1.36-.36a5.546,5.546,0,0,0-.052-.913c0-.039-.013-.077-.013-.116,0-.154.129-.18.258-.18.244,0,.887.064,1.144.09.128.013.386.013.386.167,0,.09-.077.116-.167.18-.167.116-.167.321-.155.771,0,.257.1.36.36.36h2.7c.527,0,1.054-.026,1.582-.026.347,0,.334.142.334.617s0,.617-.334.617c-.527,0-1.055-.026-1.582-.026h-.849c-.09.013-.167.039-.167.141a.229.229,0,0,0,.051.129,10.6,10.6,0,0,0,2.6,2.058c.077.052.167.1.167.206,0,.258-.489.836-.785.836a10.492,10.492,0,0,1-3.253-2.765c0-.129.232-.283.322-.335a.161.161,0,0,0,.09-.129c0-.09-.064-.128-.155-.141Zm13.547-2.173c.077.026.154.077.154.154a.244.244,0,0,1-.09.167c-.155.154-.18.141-.232.682-.026.18-.09.772-.09.926s.051.167.193.193a1.7,1.7,0,0,1,.5.694c0,.1-.116.193-.18.27a2.931,2.931,0,0,0-.63.99c0,.129.013.206.077.206s.128-.077.167-.116a5,5,0,0,1,3.266-1.53,3.054,3.054,0,0,1,3,3.164c0,1.942-1.453,3.176-3.125,3.858a3.814,3.814,0,0,1-1.054.309c-.36,0-.708-.8-.708-1.067,0-.219.155-.257.335-.3,1.4-.322,3.125-1.067,3.125-2.752a1.772,1.772,0,0,0-1.685-1.89,5.191,5.191,0,0,0-3.266,1.826.743.743,0,0,0-.154.514c0,.759.013,1.518.052,2.263.013.36.09,1.582.09,1.723s-.116.219-.965.219c-.373,0-.54-.013-.54-.27,0-.1.013-.347.013-.412.012-.4.039-.951.039-1.016.013-.412.013-.836.013-1.247,0-.09-.026-.206-.128-.206s-.193.141-.257.206c-.244.3-.772.964-.964,1.26-.039.077-.1.18-.193.18a1.957,1.957,0,0,1-.964-.99c0-.141.219-.334.321-.437a12.308,12.308,0,0,0,2.173-2.868,1.056,1.056,0,0,0,.077-.5v-.167c0-.129-.052-.27-.206-.27a1.093,1.093,0,0,0-.219.039,13.44,13.44,0,0,1-1.363.309c-.18,0-.245-.167-.3-.309a5.319,5.319,0,0,1-.206-.977c0-.193.128-.219.3-.219h.18a7.4,7.4,0,0,0,1.414-.129.488.488,0,0,0,.4-.219,1.2,1.2,0,0,0,.064-.527c0-.437.026-.874.026-1.312,0-.18-.013-.321-.013-.411,0-.142.064-.18.193-.18C1580.171,52.646,1581.2,52.775,1581.355,52.813Zm15.815,1.569c0,.09-.141.167-.283.27a12.434,12.434,0,0,0-1.865,1.723.384.384,0,0,0-.129.219c0,.1.1.167.219.167a.742.742,0,0,0,.167-.026,2.439,2.439,0,0,1,.527-.051,3.777,3.777,0,0,1,1.582.386,2.658,2.658,0,0,1,1.53,2.495c0,2.276-2.019,3.459-4.089,3.459-1.067,0-2.584-.437-2.584-1.749a1.614,1.614,0,0,1,1.646-1.556,2.1,2.1,0,0,1,1.71.913,1.277,1.277,0,0,1,.231.823c.013.09.052.167.155.167a2.09,2.09,0,0,0,1.556-1.981c0-1.247-1.054-1.762-2.173-1.762a3.9,3.9,0,0,0-2.881,1.26c-.5.489-.964,1.016-1.427,1.543a.175.175,0,0,1-.142.09c-.27,0-.926-.72-.926-.926,0-.154.193-.3.309-.386a51.5,51.5,0,0,0,4-4.038c.1-.1.334-.334.334-.463s-.116-.154-.219-.154a3.127,3.127,0,0,0-.308.051c-.309.077-2.122.45-2.328.45-.283,0-.321-.964-.321-1.183,0-.3.013-.322.4-.322h.308a11.921,11.921,0,0,0,3.253-.476,1.754,1.754,0,0,1,.489-.142C1596.424,53.186,1597.17,54.164,1597.17,54.382Zm-3.253,6.378a.533.533,0,0,0-.553.515c0,.463.617.682,1,.682.245,0,.347-.231.347-.437A.786.786,0,0,0,1593.917,60.76Zm-2.175,15.579c0,1.556.257,1.53,2.019,1.53a25.115,25.115,0,0,0,4.295-.27c.039,0,.09-.013.129-.013.244,0,.257.322.257.707s0,.707-.412.759c-.874.129-3.5.141-4.5.141-.862,0-2.3.052-2.855-.746a4.374,4.374,0,0,1-.334-2.045V72.045a16.57,16.57,0,0,0-.064-1.787v-.1a.133.133,0,0,1,.141-.141c.129,0,.99.18,1.17.219s.386.064.386.193-.193.18-.219.45c-.013.09-.013.334-.013.566v1.877c0,.219.167.322.373.322a11.285,11.285,0,0,0,4.8-1.427.594.594,0,0,1,.206-.09c.116,0,.347.347.5.592.038.051.064.09.09.129a2.15,2.15,0,0,1,.347.592c0,.1-.116.129-.193.129-.051,0-.1-.013-.167-.013-.026,0-.064-.013-.09-.013a1.211,1.211,0,0,0-.463.142,14.221,14.221,0,0,1-4.989,1.222c-.231.013-.411.116-.411.36Zm7.278-4.488c0,.193-.5.527-.656.527-.09,0-.142-.09-.193-.154a11.139,11.139,0,0,0-.811-1.067c-.038-.052-.115-.129-.115-.193,0-.142.527-.476.656-.476A4.82,4.82,0,0,1,1599.02,71.852Zm1.337-.823c0,.206-.5.553-.656.553-.077,0-.129-.09-.18-.154-.27-.373-.54-.733-.836-1.08-.039-.051-.1-.116-.1-.167,0-.167.527-.489.656-.489A5.121,5.121,0,0,1,1600.357,71.029Zm-9.927,15.43a14.545,14.545,0,0,1,1.8,1c.424.27.81.463.81.656s-.515.977-.784.977a.648.648,0,0,1-.283-.142,21.857,21.857,0,0,0-2.083-1.312c-.09-.038-.193-.1-.193-.205C1589.7,87.23,1590.172,86.459,1590.429,86.459Zm8.5-.064a4.7,4.7,0,0,1-.283.81,11.1,11.1,0,0,1-2.251,3.343,12.6,12.6,0,0,1-4.4,2.61.717.717,0,0,0-.424.27c-.052.065-.1.18-.193.18-.129,0-.231-.232-.27-.335-.167-.347-.322-.694-.476-1.041a.307.307,0,0,1-.026-.1c0-.1.167-.141.244-.154.4-.1,1.132-.373,1.53-.527a8.8,8.8,0,0,0,3.2-2.019,9.519,9.519,0,0,0,2.16-3.614c.038-.116.09-.283.257-.283C1598.209,85.532,1598.929,86.163,1598.929,86.394Zm-5.3-1.71c.283.206.8.527.8.707,0,.231-.54.939-.784.939-.09,0-.231-.116-.308-.167a19.257,19.257,0,0,0-1.878-1.35c-.09-.064-.232-.129-.232-.244,0-.206.566-.9.785-.9A10.053,10.053,0,0,1,1593.631,84.684Zm2.7-1.247a4.6,4.6,0,0,1,.823.592c.18.154.514.437.514.54,0,.193-.4.643-.566.643-.077,0-.205-.154-.308-.244-.3-.283-.6-.527-.913-.784-.051-.039-.115-.09-.115-.154A1.108,1.108,0,0,1,1596.332,83.437Zm1.144-1.106a4.763,4.763,0,0,1,1.351,1.132c0,.193-.4.643-.566.643-.064,0-.128-.064-.167-.1a11.592,11.592,0,0,0-1.042-.9c-.052-.052-.142-.1-.142-.18C1596.91,82.781,1597.335,82.331,1597.476,82.331Zm-1.517,16.7a3.421,3.421,0,0,0,.733-.039c.026,0,.064-.013.09-.013.283,0,.849.707.849.862,0,.116-.155.231-.232.309a.5.5,0,0,0-.116.116,21.913,21.913,0,0,1-2.147,1.955c-.27.206-.282.347-.282.682v2.6c0,.489.026.977.026,1.466,0,.437.012.476-.823.476-.515,0-.592-.09-.592-.334,0-.527.039-1.054.039-1.582v-1.749a.214.214,0,0,0-.206-.219.621.621,0,0,0-.27.1,15.625,15.625,0,0,1-3.138,1.53c-.283,0-.849-.707-.849-.964,0-.167.18-.232.309-.27a16.208,16.208,0,0,0,5.182-2.906c.129-.116.527-.425.527-.553,0-.18-.244-.141-.411-.141h-2.4c-.553,0-1.106.026-1.659.026-.348,0-.322-.219-.322-.733,0-.463-.026-.643.3-.643.167,0,.334.013.5.013.386.013.785.013,1.183.013Zm-1.273-1.9c.167.154.836.759.836.952,0,.218-.618.81-.836.81a.455.455,0,0,1-.309-.18,14.2,14.2,0,0,0-1.517-1.4c-.1-.077-.257-.18-.257-.309a1.661,1.661,0,0,1,.862-.81C1593.67,96.191,1594.493,96.95,1594.686,97.13Zm3.446,6.2c.167.154.887.823.887,1.016,0,.219-.656.836-.875.836-.154,0-.27-.167-.36-.27a9.561,9.561,0,0,0-1.659-1.569c-.052-.051-.142-.129-.142-.206,0-.206.656-.81.862-.81A5.939,5.939,0,0,1,1598.132,103.328Zm-2.083,8.331a3.429,3.429,0,0,0,.553-.026c.078,0,.206-.025.283-.025.27,0,.823.707.823.874a2.489,2.489,0,0,1-.283.5c-.077.116-.155.244-.206.334a18.63,18.63,0,0,1-1.672,2.443.351.351,0,0,0-.1.244.344.344,0,0,0,.193.309,20.638,20.638,0,0,1,2.173,1.659c.309.27.63.566.926.875a.245.245,0,0,1,.09.18c0,.27-.707,1.029-.978,1.029a.431.431,0,0,1-.321-.193,13.68,13.68,0,0,0-2.841-2.546.454.454,0,0,0-.3-.115.616.616,0,0,0-.386.218,14.317,14.317,0,0,1-3.215,2.25,2.155,2.155,0,0,1-.566.244c-.27,0-.862-.861-.862-1.093,0-.154.154-.219.27-.257a12.75,12.75,0,0,0,5.735-4.874,1.272,1.272,0,0,0,.219-.437c0-.193-.18-.219-.373-.219h-2.662c-.553,0-1.106.026-1.659.026-.347,0-.321-.193-.321-.784,0-.45-.013-.643.309-.643.553,0,1.106.026,1.672.026Zm-2.173,12.717c.1.026.334.064.334.206,0,.077-.052.116-.116.167-.245.18-.27.386-.334.849-.026.142-.052.322-.09.527a.651.651,0,0,0-.026.154.25.25,0,0,0,.283.257h.154a2.573,2.573,0,0,1,1.453.283,2.093,2.093,0,0,1,.8,1.878,9.311,9.311,0,0,1-.772,3.935,2.628,2.628,0,0,1-2.43,1.389c-.283,0-.463-.026-.592-.3a2.581,2.581,0,0,1-.231-.926c0-.116.038-.219.18-.219s.321.051.578.051a1.234,1.234,0,0,0,1.351-.8,7.662,7.662,0,0,0,.579-2.906c0-.63-.039-1.17-.823-1.17-.72,0-.862.1-.951.463a14.539,14.539,0,0,1-1.646,3.845,11.557,11.557,0,0,1-1.274,1.826.3.3,0,0,1-.218.129c-.232,0-1.055-.489-1.055-.784a.481.481,0,0,1,.18-.3,10.218,10.218,0,0,0,2.3-3.575,4.823,4.823,0,0,0,.321-.977.161.161,0,0,0-.167-.167,10.609,10.609,0,0,0-1.479.45.957.957,0,0,1-.27.09c-.309,0-.527-1.26-.527-1.338,0-.193.219-.193.373-.206.72-.077,1.44-.257,2.148-.386.257-.052.373-.129.411-.4a11.843,11.843,0,0,0,.141-1.659c0-.206-.026-.476-.026-.5,0-.1.039-.193.154-.193S1593.683,124.325,1593.876,124.376Zm5.349,4.256c0,.3-.81.771-1.067.771-.167,0-.245-.167-.3-.3a9.448,9.448,0,0,0-1.723-2.752.407.407,0,0,1-.116-.219c0-.232.707-.656.913-.656C1597.425,125.482,1599.225,128.311,1599.225,128.633Zm-.193-3.292c0,.206-.45.592-.617.592-.064,0-.128-.09-.18-.142a11.145,11.145,0,0,0-.913-.99c-.052-.051-.116-.116-.116-.18,0-.154.463-.54.617-.54A5.129,5.129,0,0,1,1599.032,125.341Zm1.221-.913c0,.206-.463.592-.617.592-.077,0-.116-.064-.18-.142-.3-.347-.592-.669-.913-.99-.052-.039-.129-.116-.129-.18,0-.154.489-.54.617-.54A5.175,5.175,0,0,1,1600.254,124.428Zm-7.2,15.018c.257,0,.36-.1.36-.348v-.977c0-.334-.026-.682-.052-.964,0-.039-.013-.09-.013-.129,0-.154.116-.18.245-.18.18,0,1.016.077,1.222.1.115.013.334.026.334.18,0,.09-.065.116-.167.193-.141.116-.154.36-.154.81v.964c0,.245.116.348.36.348h2.186c.527,0,1.055-.026,1.582-.026.334,0,.309.167.309.669s.025.669-.309.669c-.527,0-1.054-.026-1.582-.026h-2.186c-.245,0-.36.1-.36.36v1.376c0,.257.116.36.36.36h1.633c.514,0,1.028-.039,1.543-.039.347,0,.334.18.334.656s.013.669-.334.669c-.515,0-1.029-.039-1.543-.039h-1.633c-.245,0-.36.1-.36.36V146.3c0,.244.116.347.36.347h2.661c.527,0,1.068-.026,1.608-.026.347,0,.322.167.322.669s.013.669-.322.669c-.54,0-1.068-.026-1.608-.026h-7.51c-.527,0-1.067.026-1.607.026-.334,0-.321-.167-.321-.669s-.013-.669.321-.669c.54,0,1.08.026,1.607.026h2.713c.257,0,.36-.1.36-.347v-1.865c0-.257-.1-.36-.36-.36h-1.594c-.514,0-1.016.039-1.53.039-.36,0-.347-.167-.347-.669s-.013-.656.347-.656c.515,0,1.016.039,1.53.039h1.594c.257,0,.36-.1.36-.36v-1.376c0-.257-.1-.36-.36-.36h-1.877a.461.461,0,0,0-.489.3c-.18.348-1.016,1.981-1.389,1.981-.232,0-.978-.322-.978-.6,0-.116.129-.257.193-.334a10.6,10.6,0,0,0,1.98-4.462c.026-.142.038-.335.206-.335.09,0,.514.116.63.142.617.167.835.193.835.347,0,.129-.141.193-.231.231-.206.1-.232.193-.348.617-.038.129-.09.309-.154.515a.284.284,0,0,0-.013.1c0,.167.116.219.27.219Zm1.646,11.649c.335.039.515.064.515.206,0,.244-.219.026-.245,1.067,0,.18.038.373.27.373.052,0,.553-.077.643-.09a12.86,12.86,0,0,0,1.4-.3,3.311,3.311,0,0,1,.489-.1c.283,0,.321.836.321,1.055,0,.257-.116.283-.36.334-.669.142-1.466.257-2.147.334-.27.039-.579.026-.579.386a4.234,4.234,0,0,0,.064.682c.026.077.051.206.206.206a10.866,10.866,0,0,0,1.646-.309.831.831,0,0,1,.244-.051c.18,0,.219.283.219.772,0,.424-.013.553-.245.6a11.327,11.327,0,0,1-1.324.218c-.489.052-.746.052-.746.412,0,1.337.051,1.234.6,1.415.424.141,2.122.861,2.122,1.324,0,.283-.425.939-.733.939a.7.7,0,0,1-.4-.206,4.783,4.783,0,0,0-1.337-.785c-.206,0-.232.193-.257.283-.27,1.106-1.286,1.428-2.328,1.428s-2.148-.476-2.148-1.672c0-1.3,1.4-1.71,2.469-1.71.155,0,.45.026.528.026.218,0,.218-.232.218-.36,0-.411.026-.887-.3-.887-.27,0-.99.051-1.543.051-.527,0-.772.013-.874-.219a2.668,2.668,0,0,1-.167-.9c0-.154.039-.27.219-.27.154,0,.874.064,1.363.064h.579c.476,0,.656-.039.656-.322,0-.373-.013-.9-.347-.9-.45,0-1.479.064-2.174.064h-.385c-.347,0-.669-.013-.746-.116a2.281,2.281,0,0,1-.142-.939c0-.18.013-.36.232-.36.27,0,1.35.1,1.98.1,1.132,0,1.453.026,1.453-.322,0-.206-.077-1.067-.116-1.286a1.118,1.118,0,0,1-.026-.206c0-.129.077-.155.193-.155C1593.863,150.979,1594.467,151.069,1594.7,151.094Zm-2.868,8.538c0,.437.579.514.913.514.592,0,1.093-.167,1.093-.861,0-.244-.308-.244-.6-.244C1592.834,159.041,1591.831,159.08,1591.831,159.633Zm1.479,4.86c.064.026.142.064.142.142a.287.287,0,0,1-.1.193c-.167.142-.154.18-.231.707-.026.218-.116.849-.116,1.028,0,.142.09.18.206.219a.923.923,0,0,1,.437.592c0,.051-.051.1-.077.142-.064.09-.309.54-.347.63a1,1,0,0,0-.026.206c0,.064.026.129.1.129.039,0,.077-.039.1-.064.27-.283.784-.746,1.093-1a3.028,3.028,0,0,1,1.864-.913,1.388,1.388,0,0,1,1.106.566,2.339,2.339,0,0,1,.232,1.222c0,.669-.026,1.337-.064,1.993-.026.553-.064,1.131-.064,1.672,0,.309-.013.759.283.759.347,0,.9-.553,1.132-.81a.369.369,0,0,1,.245-.141c.219,0,.592.964.592,1.17,0,.18-.476.515-.618.617a3.325,3.325,0,0,1-1.813.746c-1.08,0-1.184-1.247-1.184-2.057,0-1.157.167-2.328.167-3.485,0-.283,0-.733-.386-.733a1.929,1.929,0,0,0-1,.514,12.859,12.859,0,0,0-1.4,1.247,4.287,4.287,0,0,0-.72.823c-.052.167,0,1.736,0,2.032,0,.077.026.463.038.681.026.527.064,1.222.064,1.363,0,.09.013.219-.939.219-.309,0-.54,0-.54-.257,0-.116.077-1.543.077-2.122,0-.064-.026-.167-.116-.167s-.18.193-.308.386c-.141.232-.54.926-.669,1.17-.039.077-.09.154-.168.154-.218,0-.964-.63-.964-.849a1.379,1.379,0,0,1,.257-.463c.695-1.016,1.3-2.07,1.891-3.138a1.211,1.211,0,0,0,.154-.6c0-.116.026-.232.026-.334s-.052-.193-.167-.193a.773.773,0,0,0-.231.064,8.888,8.888,0,0,1-1.556.527c-.206,0-.309-.193-.373-.36a3.784,3.784,0,0,1-.27-.874c0-.206.27-.206.425-.231.386-.051,2.019-.334,2.173-.643a.836.836,0,0,0,.064-.386c0-.347.051-1.119.051-1.685,0-.154-.013-.309-.013-.4,0-.141.064-.18.206-.18S1593.182,164.454,1593.31,164.493Zm3.266,15.211c0,.09-.141.167-.283.27a12.442,12.442,0,0,0-1.864,1.723.383.383,0,0,0-.129.219c0,.1.1.167.218.167a.754.754,0,0,0,.168-.026,2.438,2.438,0,0,1,.527-.051,3.769,3.769,0,0,1,1.581.386,2.657,2.657,0,0,1,1.531,2.494c0,2.276-2.019,3.459-4.089,3.459-1.067,0-2.585-.437-2.585-1.749a1.615,1.615,0,0,1,1.646-1.556,2.1,2.1,0,0,1,1.71.913,1.279,1.279,0,0,1,.232.823c.013.09.052.167.154.167a2.09,2.09,0,0,0,1.556-1.98c0-1.247-1.054-1.762-2.173-1.762a3.9,3.9,0,0,0-2.88,1.26c-.5.489-.965,1.016-1.427,1.543a.175.175,0,0,1-.141.09c-.27,0-.926-.72-.926-.926,0-.154.193-.3.309-.386a51.569,51.569,0,0,0,4-4.038c.1-.1.334-.335.334-.463s-.116-.154-.219-.154a3.082,3.082,0,0,0-.309.052c-.308.077-2.121.45-2.327.45-.283,0-.322-.964-.322-1.183,0-.3.013-.321.4-.321h.309a11.909,11.909,0,0,0,3.253-.476,1.762,1.762,0,0,1,.489-.141C1595.83,178.508,1596.576,179.485,1596.576,179.7Zm-3.253,6.378a.533.533,0,0,0-.553.514c0,.463.618.682,1,.682.245,0,.347-.231.347-.437A.786.786,0,0,0,1593.323,186.082Z" transform="translate(0)"/>
    <path id="Path_2" data-name="Path 2" d="M1493.737,108.669h91.383v119.9" transform="translate(-0.93 -40.249)" fill="none" stroke="#000" stroke-miterlimit="10" stroke-width="1.655"/>
  </g>
</svg>
