<svg xmlns="http://www.w3.org/2000/svg" width="157.735" height="93.011" viewBox="0 0 157.735 93.011">
  <defs>
    <style>
      .cls-1 {
        fill: #fff;
      }
    </style>
  </defs>
  <g id="グループ_972" data-name="グループ 972" transform="translate(-532.051 -243.431)">
    <g id="グループ_973" data-name="グループ 973" transform="translate(541.967 243.431)">
      <g id="グループ_972-2" data-name="グループ 972">
        <path id="パス_6808" data-name="パス 6808" class="cls-1" d="M559.919,276.836h11.693l-2.506,8.352h-17.8a1.671,1.671,0,0,1-1.6-2.151l4.365-14.552H544.052l2.505-8.351h10.021l2.506-8.351H549.063l2.505-8.352h30.065l-2.505,8.352H567.435l-2.505,8.351h11.692l-2.505,8.351H562.425Zm75.163-25.053h11.692l2.505-8.352H619.214l-2.505,8.352H626.73l-7.517,25.053H609.192l-2.505,8.352h30.066l2.505-8.352H627.566Zm49.273-8.352h-5.01l-2.505,8.352h-6.681l2.505-8.352h-8.351l-2.506,8.352H651.785l-2.506,8.351H659.3l-7.516,25.054h8.351l7.517-25.054h11.692l2.505-8.351h0Zm-37.581,25.054-5.01,16.7h4.2a3.34,3.34,0,0,0,3.2-2.381l4.3-14.323Zm23.384,0-4.366,14.552a1.671,1.671,0,0,0,1.6,2.151h4.436l5.011-16.7Zm16.7-25.054-2.505,8.352h5.011l2.506-8.352ZM611.7,251.783l2.505-8.352h-5.011l-2.505,8.352Zm-5.011-8.352h-5.01l-2.505,8.352h5.011Zm2.505,16.7H590.819l5.011-16.7h-8.352l-12.526,41.757h26.724l2.505-8.352H585.808l2.505-8.351H604.2a3.341,3.341,0,0,0,3.2-2.38Z" transform="translate(-544.052 -243.431)"/>
        <path id="パス_6809" data-name="パス 6809" class="cls-1" d="M553.1,299.225h1.91l-1.431,4.539h-1.259l1.146-3.636h-.013l-2.661,3.636h-1.085l-.368-3.636h-.013l-1.147,3.636h-1.259l1.431-4.539h1.909l.39,3.267Zm9.451,2.269c-.3.948-1.158,2.4-3.73,2.4s-2.518-1.449-2.219-2.4,1.158-2.4,3.731-2.4S562.849,300.547,562.55,301.494Zm-2.491-1.532a2.152,2.152,0,0,0-2.077,1.532c-.223.706-.068,1.532,1.111,1.532a2.152,2.152,0,0,0,2.077-1.532C561.393,300.789,561.238,299.962,560.059,299.962Zm9.823.406a1.4,1.4,0,0,1-.923.91l0,.012c.528.089.658.611.5,1.1a2.021,2.021,0,0,1-2.175,1.373h-3.41l1.431-4.539H568.9C569.594,299.225,570.147,299.53,569.883,300.369Zm-2.313,1.45h-1.782l-.34,1.08h1.916a.725.725,0,0,0,.724-.534C568.2,302.009,568.025,301.819,567.57,301.819Zm.4-1.767h-1.628l-.309.979h1.809a.636.636,0,0,0,.644-.49C568.579,300.255,568.509,300.051,567.973,300.051Zm3.79,3.712h1.3l1.431-4.539h-1.3Zm7.008-4.539h-1.3l-1.431,4.539h4.214l.284-.9h-2.913Zm4.174,4.539h1.3l1.431-4.539h-1.3Zm5.242-3.674h1.775l-1.158,3.674h1.3l1.159-3.674h1.776l.272-.864H588.46Zm9.434,1.112L597,299.225h-1.527l1.185,2.956-.5,1.583h1.3l.5-1.583,3.049-2.956h-1.528Zm7.125,2.562h4.495l.273-.865h-3.2l.329-1.042h3.008l.261-.826h-3.008l.3-.941h3.169l.273-.864h-4.468Zm10.1-1.081-.3-3.458H613.12l.693,4.539h1.38l3.555-4.539h-1.427Zm11.512-1.189c-.3.948-1.158,2.4-3.73,2.4s-2.518-1.449-2.219-2.4,1.158-2.4,3.731-2.4S626.654,300.547,626.356,301.494Zm-2.491-1.532a2.152,2.152,0,0,0-2.077,1.532c-.223.706-.068,1.532,1.111,1.532a2.152,2.152,0,0,0,2.077-1.532C625.2,300.789,625.044,299.962,623.865,299.962Zm7.484-.737h-1.3l-1.431,4.539h4.214l.284-.9H630.2Zm8.721,2.606a1.472,1.472,0,0,1-1.589,1.195c-1.193,0-.977-.749-.836-1.195l.822-2.606h-1.3l-.918,2.911c-.16.509-.486,1.755,1.959,1.755s2.9-1.246,3.065-1.755l.919-2.911h-1.3Zm4.579-1.742h1.775l-1.158,3.674h1.3l1.158-3.674H649.5l.273-.864h-4.85Zm6.475,3.674h1.3l1.43-4.539h-1.3Zm10.942-2.27c-.3.948-1.157,2.4-3.73,2.4s-2.518-1.449-2.219-2.4,1.158-2.4,3.73-2.4S662.366,300.547,662.067,301.494Zm-2.491-1.532a2.152,2.152,0,0,0-2.077,1.532c-.222.706-.068,1.532,1.111,1.532a2.152,2.152,0,0,0,2.077-1.532C660.909,300.789,660.755,299.962,659.575,299.962Zm9.22,2.428h-.013l-1.514-3.165h-1.507l-1.431,4.539h1.259l1-3.165h.013l1.608,3.165h1.414l1.431-4.539h-1.26Z" transform="translate(-544.55 -253.102)"/>
      </g>
    </g>
    <g id="グループ_978" data-name="グループ 978" transform="translate(532.051 298.459)">
      <path id="パス_6810" data-name="パス 6810" class="cls-1" d="M571.867,310.219l-11.339,37.793H552.1l-.029-.11-6.134-23.064-6.952,23.174H533.87a1.817,1.817,0,0,1-1.741-2.34l10.693-35.643h8.533l.027.114,5.686,24.211,7.3-24.325h7.557Zm26.5,7.305,2.249-7.5H577.054l-11.338,37.793-.057.19h23.564l2.249-7.5H575.817l2.228-7.425h9.976a3.467,3.467,0,0,0,3.341-2.485l1.5-5.01H580.293l2.422-8.073Zm39.015-7.5-2.248,7.5H645.4l-9.09,30.3-.057.19h7.909l9.147-30.488h10.269l2.249-7.5Z" transform="translate(-532.051 -310.029)"/>
      <g id="グループ_977" data-name="グループ 977" transform="translate(61.123)">
        <g id="グループ_974" data-name="グループ 974" transform="translate(10.118)">
          <path id="パス_6811" data-name="パス 6811" class="cls-1" d="M636.836,347.952a16.687,16.687,0,0,0-.741-12.3l-3.145-6.3-2.807-5.564-1.089-2.255c-2.123-4.24-2.616-7.714-1.6-11.264l.068-.235h-8.37l-.008.031a16.467,16.467,0,0,0,.687,12.3l6.113,13.148.355.855c1.614,3.552,3.246,7.655,2.177,11.389l-.076.264h8.42Z" transform="translate(-618.271 -310.029)"/>
        </g>
        <g id="グループ_975" data-name="グループ 975" transform="translate(0 21.01)">
          <path id="パス_6812" data-name="パス 6812" class="cls-1" d="M614.714,352.422c1.082-3.451,4.35-7.023,7.532-10.12l-3.179-6.845-4.853,4.387a26.943,26.943,0,0,0-8.089,12.269l-.1.316h8.685Z" transform="translate(-606.026 -335.457)"/>
        </g>
        <g id="グループ_976" data-name="グループ 976" transform="translate(23.575)">
          <path id="パス_6813" data-name="パス 6813" class="cls-1" d="M643.02,310.029c-1.068,3.546-3.708,7.15-8.307,11.337l-.155.141L637.832,328l5.8-5.419c4.211-3.946,6.628-7.612,8.08-12.26l.09-.288Z" transform="translate(-634.558 -310.029)"/>
        </g>
      </g>
    </g>
  </g>
</svg>
