<svg xmlns="http://www.w3.org/2000/svg" width="87.481" height="20.543" viewBox="0 0 87.481 20.543">
  <g id="Group_893" data-name="Group 893" transform="translate(-304.978 -4502.457)">
    <path id="knt_logo" d="M797.183,416.381a1.6,1.6,0,0,1,1.676,1.542v12.451a1.577,1.577,0,0,0,1.676,1.543h1.8v-10.4h.047l5.976,8.855a3.616,3.616,0,0,0,3.391,1.546h1.363V417.923a1.575,1.575,0,0,0-1.676-1.542h-1.8V426.8h-.047l-6.034-8.929a3.269,3.269,0,0,0-2.709-1.494h-3.663m19.621,0a1.591,1.591,0,0,1,1.665,1.542,1.584,1.584,0,0,0,1.676,1.567h3.382v10.884a1.563,1.563,0,0,0,1.676,1.543h2.035V419.49h5.057v-1.567a1.6,1.6,0,0,0-1.675-1.542H816.8m-29.35,13.993a1.6,1.6,0,0,0,1.676,1.543h2.035V421.557a1.584,1.584,0,0,0-1.676-1.543h-2.035v10.36m-20.289-12.451v12.451a1.583,1.583,0,0,0,1.675,1.543h2.036V426.2h0l4.653,4.361a4.28,4.28,0,0,0,3.38,1.362h2.7l-8.5-7.768,8.5-7.768h-4.632l-6.106,5.723h0l-.015-4.179a1.621,1.621,0,0,0-1.675-1.542h-3.7a1.67,1.67,0,0,1,1.675,1.542m76.967-1.913c4.881,0,8.839,3.644,8.839,8.138s-3.957,8.138-8.839,8.138-8.839-3.644-8.839-8.138,3.957-8.138,8.839-8.138m5.451,8.138a5.47,5.47,0,1,0-5.451,5.019A5.248,5.248,0,0,0,849.583,424.149Zm-60.135-9.308a1.8,1.8,0,0,0-2.479,2.493,2.513,2.513,0,0,0,2.523,1.021,3.971,3.971,0,0,0,2.768-1.434,3.064,3.064,0,0,0-.028-3.685,3.567,3.567,0,0,0-3.077-1.493,3.867,3.867,0,0,0-2.773,1.551c-.95,1.035-1.382,1.263-2.2,1.325a2.692,2.692,0,0,1-1.949-.614,6.491,6.491,0,0,1-.585-.621,4.95,4.95,0,0,0,1.066,1.248,2.98,2.98,0,0,0,2.755.388,9.906,9.906,0,0,0,2.425-1.387,1.663,1.663,0,0,1,2.327.743,1.759,1.759,0,0,1-.271,1.613,1.081,1.081,0,0,0-.5-1.15" transform="translate(-460.512 4090.713)" fill="#fff"/>
  </g>
</svg>
