<svg xmlns="http://www.w3.org/2000/svg" width="96.322" height="22.62" viewBox="0 0 96.322 22.62">
  <path id="knt_logo" d="M800.386,416.849a1.764,1.764,0,0,1,1.845,1.7v13.709a1.737,1.737,0,0,0,1.845,1.7h1.98V422.5h.052l6.58,9.75a3.981,3.981,0,0,0,3.734,1.7h1.5V418.548a1.735,1.735,0,0,0-1.845-1.7H814.1v11.476h-.052l-6.643-9.831a3.6,3.6,0,0,0-2.983-1.645h-4.033m21.6,0a1.751,1.751,0,0,1,1.833,1.7,1.744,1.744,0,0,0,1.845,1.725h3.724v11.984a1.721,1.721,0,0,0,1.845,1.7h2.24V420.273h5.568v-1.725a1.76,1.76,0,0,0-1.845-1.7H821.99m-32.316,15.408a1.763,1.763,0,0,0,1.845,1.7h2.241V422.549a1.745,1.745,0,0,0-1.845-1.7h-2.241v11.406m-22.339-13.709v13.709a1.743,1.743,0,0,0,1.845,1.7h2.241v-6.3h0l5.123,4.8a4.713,4.713,0,0,0,3.722,1.5h2.978l-9.359-8.553,9.359-8.553h-5.1l-6.723,6.3h0l-.016-4.6a1.785,1.785,0,0,0-1.845-1.7h-4.07a1.839,1.839,0,0,1,1.845,1.7m84.746-2.106c5.375,0,9.732,4.012,9.732,8.961s-4.357,8.96-9.732,8.96-9.733-4.012-9.733-8.96,4.357-8.961,9.733-8.961m6,8.961a6.022,6.022,0,1,0-6,5.526A5.779,5.779,0,0,0,858.081,425.4Zm-66.213-10.249a1.978,1.978,0,0,0-2.729,2.745,2.767,2.767,0,0,0,2.778,1.124,4.372,4.372,0,0,0,3.047-1.579,3.373,3.373,0,0,0-.03-4.057,3.927,3.927,0,0,0-3.388-1.644,4.258,4.258,0,0,0-3.053,1.708c-1.046,1.139-1.522,1.39-2.421,1.459a2.964,2.964,0,0,1-2.146-.676,7.148,7.148,0,0,1-.645-.684,5.451,5.451,0,0,0,1.174,1.374,3.281,3.281,0,0,0,3.034.428,10.907,10.907,0,0,0,2.67-1.527,1.831,1.831,0,0,1,2.562.819,1.937,1.937,0,0,1-.3,1.776,1.19,1.19,0,0,0-.554-1.266" transform="translate(-765.49 -411.743)" fill="#fff"/>
</svg>
