<svg xmlns="http://www.w3.org/2000/svg" width="220.076" height="34.522" viewBox="0 0 220.076 34.522"><g transform="translate(-249.678 -285.215)"><path d="M408.834,290.756a6.554,6.554,0,0,0-.8.576l-.091-.13a7.42,7.42,0,0,0-5.612-3.2c-.137-.008-.274-.011-.414-.011H359.187v-1.006h42.734a8.617,8.617,0,0,1,4.039,1,7.286,7.286,0,0,1,2.517,2.268Zm13.221,14.014a7.422,7.422,0,0,1-5.612-3.205l-.024-.034a6.417,6.417,0,0,1-.81.557l.3.43a7.27,7.27,0,0,0,2.517,2.267,8.616,8.616,0,0,0,4.038,1H439.9v1.767l3.5-2.771H422.467C422.329,304.781,422.191,304.777,422.055,304.77ZM416.443,291.2a7.42,7.42,0,0,1,5.612-3.2c.137-.008.274-.011.412-.011H443.4l-3.5-2.773v1.767H422.467c-.155,0-.312,0-.468.014a8.4,8.4,0,0,0-6.35,3.626l-.041.058a6.564,6.564,0,0,1,.81.557Zm-8.5,10.362a7.422,7.422,0,0,1-5.612,3.205c-.137.007-.274.011-.414.011H359.187v1h42.734c.157,0,.312,0,.468-.012a8.4,8.4,0,0,0,6.35-3.627l.095-.134a6.692,6.692,0,0,1-.8-.576Zm4.729-5.441a1.594,1.594,0,0,0-1.876,0,1.937,1.937,0,0,0-.508,2.609,2.334,2.334,0,0,0,2.428,1.067,3.741,3.741,0,0,0,2.663-1.5,3.426,3.426,0,0,0-.027-3.853,3.337,3.337,0,0,0-2.961-1.56,3.665,3.665,0,0,0-2.669,1.621c-.914,1.081-1.329,1.319-2.116,1.386a2.47,2.47,0,0,1-1.876-.641,6.586,6.586,0,0,1-.562-.65,5.071,5.071,0,0,0,1.026,1.3,2.68,2.68,0,0,0,2.651.406,9.344,9.344,0,0,0,2.333-1.449,1.548,1.548,0,0,1,2.24.777,1.961,1.961,0,0,1-.261,1.686,1.184,1.184,0,0,0-.485-1.2m8.956,4.361c1.475,0,2.386-.967,2.386-2.769v-5.333h-1.159v5.2c0,1.282-.552,1.867-1.374,1.867a2.342,2.342,0,0,1-.922-.214l-.2,1.014A3.408,3.408,0,0,0,421.632,300.485Zm8.77,0a4.562,4.562,0,0,0,2.813-.89l-.338-1.034a4.1,4.1,0,0,1-2.408.833,2.911,2.911,0,0,1-3-3.039,2.881,2.881,0,0,1,3-2.993,3.645,3.645,0,0,1,2.24.8l.383-1.057a4.554,4.554,0,0,0-2.656-.833,4.107,4.107,0,1,0-.034,8.214Zm9.835-8.1h-5.5v1.025h2.194v6.965h1.148v-6.965h2.162Zm-72.283,0h-5.5v1.025h2.194v6.965h1.148v-6.965h2.16Zm5.3,8.1a4.107,4.107,0,1,0-4.162-4.107A4.017,4.017,0,0,0,373.255,300.485Zm.012-1.091a3.016,3.016,0,1,1,2.982-3.016A2.915,2.915,0,0,1,373.267,299.394Zm12.209.979-3.612-4.13,3.309-3.86h-1.384l-3.3,3.916v-3.916h-1.159v7.99h1.159v-4.05l3.5,4.05Zm7.822-7.99h-1.159l-2.126,3.747-2.137-3.747H386.6l2.78,4.828v3.162h1.137V297.2Zm4.945,8.1a4.108,4.108,0,1,0-4.164-4.107A4.017,4.017,0,0,0,398.243,300.485Zm.011-1.091a3.016,3.016,0,1,1,2.982-3.016A2.916,2.916,0,0,1,398.254,299.394Zm-15.006,17.453a.848.848,0,0,0-.731.393V315.9h-.377v2.986h.377v-.358a.811.811,0,0,0,.711.4,1.043,1.043,0,0,0,.02-2.081Zm-.076,1.732a.692.692,0,0,1,0-1.383.693.693,0,0,1,0,1.383Zm2.886-1.693-.552,1.474-.619-1.474h-.414l.838,1.91-.107.246c-.116.27-.254.346-.457.346a.478.478,0,0,1-.164-.028l-.051.334a.884.884,0,0,0,.278.043.755.755,0,0,0,.734-.58l.91-2.271Zm14.437-4.062a.606.606,0,0,1,.61.61v4.918a.6.6,0,0,0,.61.61h.653v-4.108h.018l2.174,3.5a1.276,1.276,0,0,0,1.233.611h.5v-5.528a.6.6,0,0,0-.61-.61h-.654v4.118h-.016l-2.2-3.527a1.168,1.168,0,0,0-.986-.591H400.5m7.137,0a.6.6,0,0,1,.606.61.6.6,0,0,0,.608.619h1.23v4.3a.59.59,0,0,0,.61.61h.741v-4.909h1.839v-.619a.6.6,0,0,0-.608-.61h-5.025m-10.676,5.528a.605.605,0,0,0,.61.61h.741v-4.092a.6.6,0,0,0-.61-.61h-.741v4.092m-7.379-4.918v4.918a.6.6,0,0,0,.61.61h.74V316.7h0l1.693,1.722a1.488,1.488,0,0,0,1.229.538h.984l-3.092-3.069,3.092-3.069h-1.686l-2.22,2.26h0l0-1.651a.614.614,0,0,0-.61-.61h-1.345a.632.632,0,0,1,.61.61m27.993-.756a3.215,3.215,0,1,1-3.215,3.215,3.215,3.215,0,0,1,3.215-3.215m1.982,3.215a1.983,1.983,0,1,0-1.982,1.983A1.982,1.982,0,0,0,419.553,315.892Zm-21.871-3.677a.6.6,0,0,0-.71,0,.733.733,0,0,0-.192.987.885.885,0,0,0,.918.4,1.421,1.421,0,0,0,1.007-.566,1.3,1.3,0,0,0-.011-1.456,1.264,1.264,0,0,0-1.119-.589,1.386,1.386,0,0,0-1.009.612c-.345.408-.5.5-.8.523a.927.927,0,0,1-.71-.242,2.519,2.519,0,0,1-.212-.245,1.905,1.905,0,0,0,.388.492,1.013,1.013,0,0,0,1,.154,3.529,3.529,0,0,0,.881-.549.584.584,0,0,1,.846.295.735.735,0,0,1-.1.637.445.445,0,0,0-.183-.454" transform="translate(26.35)" fill="#fff"/><path d="M281.642,297.308l-2.4-6.623h-.543l-2.512,6.619-2.547-6.538-.031-.081h-1.949l4.188,10.491h.683l2.408-6.369,2.312,6.369h.68l4.336-10.316.073-.174h-1.951Zm17.823,1.745h1.268a5.311,5.311,0,0,0,3.6-1.159,3.948,3.948,0,0,0,1.314-3.123,4.1,4.1,0,0,0-1.234-3.051,3.655,3.655,0,0,0-1.626-.945,11.309,11.309,0,0,0-2.809-.257h-2.366v14.767h1.851Zm0-6.859h.965c2.289,0,3.449.857,3.449,2.55,0,1.743-1.127,2.627-3.351,2.627h-1.063Zm7.688-1.509v10.493h1.8V290.685Zm8.956,1.51a4.177,4.177,0,0,1,2.69,1.092l.207.172v-2.171l-.062-.035a5.37,5.37,0,0,0-2.728-.767A5.288,5.288,0,0,0,312,292.407a5.4,5.4,0,0,0-1.322,3.568,5.22,5.22,0,0,0,1.582,3.814,5.283,5.283,0,0,0,3.834,1.567,5.736,5.736,0,0,0,2.846-.764l.064-.037v-2.206l-.207.174a7.412,7.412,0,0,1-.707.534,3.837,3.837,0,0,1-.644.349,3.155,3.155,0,0,1-1.333.254,3.481,3.481,0,0,1-2.574-1.069,3.624,3.624,0,0,1-1.052-2.629,3.721,3.721,0,0,1,1.052-2.671A3.428,3.428,0,0,1,316.11,292.195Zm4.491-1.51V301.17h1.8v-4.308l.183-.182,3.635,4.491h2.4l-4.751-5.718,4.76-4.767H326.2l-3.806,3.9v-3.9Zm12.1,4.158-1.021-.416c-.688-.283-1.037-.65-1.037-1.091a1,1,0,0,1,.381-.806,1.466,1.466,0,0,1,.986-.335,1.445,1.445,0,0,1,.792.2,2.063,2.063,0,0,1,.623.749l.064.109,1.468-.869-.061-.108a3.2,3.2,0,0,0-2.873-1.786,3.324,3.324,0,0,0-2.278.814,2.6,2.6,0,0,0-.923,2.022c0,1.191.733,2.1,2.178,2.715l.987.411a4.285,4.285,0,0,1,.643.337,1.983,1.983,0,0,1,.427.368,1.278,1.278,0,0,1,.235.416,1.616,1.616,0,0,1,.076.507,1.538,1.538,0,0,1-.441,1.138,1.638,1.638,0,0,1-2.4-.168,2.563,2.563,0,0,1-.346-1.184l-.016-.138-1.814.4.018.116a3.765,3.765,0,0,0,1.106,2.294,3.286,3.286,0,0,0,2.286.821,3.363,3.363,0,0,0,2.44-.963,3.262,3.262,0,0,0,.979-2.424,2.91,2.91,0,0,0-.6-1.858A4.519,4.519,0,0,0,332.705,294.843Zm-83.027-8.268v1.7h85.5v-1.7Zm21.029,5.813v-1.7h-5.9v10.491h5.9v-1.7h-4.1V296.3h3.985v-1.7H266.6v-2.21Zm18.991,7.276a1.481,1.481,0,0,1-1.294-.614,2.571,2.571,0,0,1-.346-1.186l-.016-.138-1.814.4.016.116a3.77,3.77,0,0,0,1.107,2.3,3.287,3.287,0,0,0,2.286.822,3.371,3.371,0,0,0,2.443-.964,3.262,3.262,0,0,0,.979-2.424,2.9,2.9,0,0,0-.6-1.859,4.5,4.5,0,0,0-1.874-1.268l-1.022-.418c-.687-.283-1.036-.649-1.036-1.091a1,1,0,0,1,.38-.806,1.472,1.472,0,0,1,.987-.335,1.446,1.446,0,0,1,.792.2,2.038,2.038,0,0,1,.623.749l.064.109,1.469-.871-.061-.107a3.2,3.2,0,0,0-2.875-1.787,3.32,3.32,0,0,0-2.277.814,2.6,2.6,0,0,0-.925,2.024c0,1.191.733,2.1,2.179,2.716l.987.41a4.411,4.411,0,0,1,.643.338,1.98,1.98,0,0,1,.427.368,1.292,1.292,0,0,1,.235.416,1.583,1.583,0,0,1,.077.507,1.537,1.537,0,0,1-.442,1.138A1.478,1.478,0,0,1,289.7,299.664Zm15.021,5.621h30.463v-1.7H304.719Zm-40.054,0h28.394v-1.7H264.665Zm-3.906-4.031-10.254-10.73h-.711v14.761h1.885v-10.93l10.474,10.93h.492V290.518h-1.886ZM269.436,312a1.576,1.576,0,0,0,.546-1.211,1.91,1.91,0,0,0-.168-.776,1.826,1.826,0,0,0-.443-.634,1.6,1.6,0,0,0-.677-.349,4.378,4.378,0,0,0-1.064-.1h-1v6.654h1.522a4.374,4.374,0,0,0,1.133-.124,1.817,1.817,0,0,0,.746-.462,1.769,1.769,0,0,0,.552-1.318,1.791,1.791,0,0,0-.311-1.044A1.608,1.608,0,0,0,269.436,312Zm-1.8-2.151h.353a1.115,1.115,0,0,1,.776.243.915.915,0,0,1,.268.712.961.961,0,0,1-.261.731,1.162,1.162,0,0,1-.821.247h-.315Zm1.621,4.521a1.541,1.541,0,0,1-1,.268h-.621V312.62h.508a1.677,1.677,0,0,1,1.125.288.939.939,0,0,1,.323.725A.925.925,0,0,1,269.255,314.366Zm3.5-3a1.866,1.866,0,0,0-.475.384v-.374h-.969v4.2h.969V313.4q0-1.2.794-1.2a.932.932,0,0,1,.538.2l.443-.887a1.555,1.555,0,0,0-.8-.251A1.088,1.088,0,0,0,272.755,311.37Zm4.952.5a1.789,1.789,0,0,0-1.315-.6,1.825,1.825,0,0,0-1.414.63,2.272,2.272,0,0,0-.564,1.574,2.343,2.343,0,0,0,.564,1.6,1.865,1.865,0,0,0,2.729.069v.439h.973v-4.2h-.973Zm-.272,2.594a1.114,1.114,0,0,1-.871.37,1.055,1.055,0,0,1-.836-.383,1.46,1.46,0,0,1-.324-.983,1.4,1.4,0,0,1,.333-.949,1.074,1.074,0,0,1,.835-.379,1.1,1.1,0,0,1,.863.374,1.6,1.6,0,0,1,0,1.948Zm27.493-1.534q-.56-.235-.56-.479a.294.294,0,0,1,.095-.226.321.321,0,0,1,.228-.088c.187,0,.343.128.47.388l.8-.427a1.273,1.273,0,0,0-1.2-.833,1.315,1.315,0,0,0-.93.358,1.2,1.2,0,0,0-.376.906,1.012,1.012,0,0,0,.22.676,1.846,1.846,0,0,0,.595.415l.3.142c.1.045.195.093.293.142.253.15.379.31.379.483q0,.448-.491.447a.6.6,0,0,1-.423-.164,1.837,1.837,0,0,1-.262-.383l-.827.383a1.607,1.607,0,0,0,2.547.642,1.321,1.321,0,0,0,.449-1.017,1.046,1.046,0,0,0-.268-.754A3.353,3.353,0,0,0,304.928,312.926Zm2.66-3.918a.635.635,0,0,0-.63.625.617.617,0,0,0,.185.453.608.608,0,0,0,.449.187.594.594,0,0,0,.443-.187.606.606,0,0,0,.185-.447.589.589,0,0,0-.185-.443A.607.607,0,0,0,307.589,309.008Zm9.12,2.254a1.587,1.587,0,0,0-1.146.506v-.388h-.975v4.2h.975v-2.025a2.217,2.217,0,0,1,.2-1.1.749.749,0,0,1,.685-.318.7.7,0,0,1,.612.241,1.542,1.542,0,0,1,.172.858v2.344h.975V313a1.889,1.889,0,0,0-.353-1.28A1.452,1.452,0,0,0,316.708,311.262Zm-4.315.591a1.691,1.691,0,0,0-1.318-.591,1.782,1.782,0,0,0-1.457.681,2.424,2.424,0,0,0-.512,1.561,2.3,2.3,0,0,0,.552,1.572,1.788,1.788,0,0,0,1.4.621,1.809,1.809,0,0,0,1.332-.589v.585q0,1.306-1.064,1.306a1.04,1.04,0,0,1-.879-.392,1.107,1.107,0,0,1-.187-.479h-.973a1.847,1.847,0,0,0,.646,1.288,2.084,2.084,0,0,0,1.384.453,1.963,1.963,0,0,0,1.564-.654,1.775,1.775,0,0,0,.406-.815,3.475,3.475,0,0,0,.053-.4q.02-.225.02-.523v-4.1h-.971Zm-.258,2.574a1.062,1.062,0,0,1-.879.4,1.042,1.042,0,0,1-.871-.4,1.683,1.683,0,0,1,0-1.887,1.043,1.043,0,0,1,.871-.41,1.083,1.083,0,0,1,.849.374,1.418,1.418,0,0,1,.327.979A1.443,1.443,0,0,1,312.135,314.427Zm-5.03,1.15h.971v-4.2H307.1Zm-19.266-3.711a1.812,1.812,0,0,0-2.728.03,2.267,2.267,0,0,0-.565,1.57,2.344,2.344,0,0,0,.565,1.6,1.849,1.849,0,0,0,1.432.629,1.807,1.807,0,0,0,1.3-.56v.439h.975V308.3h-.975Zm-.27,2.594a1.114,1.114,0,0,1-.871.37,1.058,1.058,0,0,1-.837-.383,1.467,1.467,0,0,1-.323-.983,1.4,1.4,0,0,1,.331-.949,1.077,1.077,0,0,1,.837-.379,1.1,1.1,0,0,1,.863.374,1.6,1.6,0,0,1,0,1.948Zm-5.544-3.2a1.591,1.591,0,0,0-1.146.506v-.388H279.9v4.2h.973v-2.025a2.2,2.2,0,0,1,.2-1.1.749.749,0,0,1,.685-.318.7.7,0,0,1,.612.241,1.543,1.543,0,0,1,.172.858v2.344h.973V313a1.89,1.89,0,0,0-.353-1.28A1.45,1.45,0,0,0,282.025,311.262Zm19.306,3.4a.993.993,0,0,1-.6.172,1.025,1.025,0,0,1-.764-.3,1.28,1.28,0,0,1-.337-.823h3.009l0-.228a2.329,2.329,0,0,0-.534-1.625,1.888,1.888,0,0,0-1.467-.591,1.908,1.908,0,0,0-1.474.608,2.327,2.327,0,0,0-.552,1.611,2.262,2.262,0,0,0,.569,1.613,1.974,1.974,0,0,0,1.509.6,2.626,2.626,0,0,0,.608-.068,1.864,1.864,0,0,0,.52-.219,2.14,2.14,0,0,0,.453-.379,3.292,3.292,0,0,0,.4-.554l-.819-.457A2.473,2.473,0,0,1,301.331,314.659Zm-1.5-2.068a.993.993,0,0,1,.218-.243.93.93,0,0,1,.283-.155,1,1,0,0,1,.333-.054.928.928,0,0,1,.977.776H299.7A1.141,1.141,0,0,1,299.834,312.591Zm-4.081-3.47a5.077,5.077,0,0,0-1.587-.2h-1.4v6.654h1.379a5.155,5.155,0,0,0,1.564-.185,3.239,3.239,0,0,0,2.2-3.142,3.183,3.183,0,0,0-1.03-2.47A2.959,2.959,0,0,0,295.753,309.12Zm.41,4.892a2.315,2.315,0,0,1-.811.479,3.78,3.78,0,0,1-1.125.142h-.453v-4.767h.453a2.778,2.778,0,0,1,1.944.607,2.311,2.311,0,0,1,.733,1.776A2.28,2.28,0,0,1,296.163,314.013Z" transform="translate(0 0.479)" fill="#fff"/><g transform="translate(353.54 295.245)" opacity="0.557"><line x2="15.458" y2="15.458" fill="none" stroke="#fff" stroke-miterlimit="10" stroke-width="1"/><line x1="15.458" y2="15.458" fill="none" stroke="#fff" stroke-miterlimit="10" stroke-width="1"/></g></g></svg>