<svg xmlns="http://www.w3.org/2000/svg" width="96.39" height="33.007" viewBox="0 0 96.39 33.007">
  <path id="mobievo" d="M11.98,42.184l-.262-2.134H10.479L9.542,43.01h.826l.744-2.368h.014l.234,2.368h.7L13.8,40.642h.014l-.744,2.368h.826l.936-2.961H13.591Zm6.307-2.217a2.281,2.281,0,0,0-2.437,1.57c-.193.62-.234,1.57,1.446,1.57a2.281,2.281,0,0,0,2.437-1.57C19.939,40.917,19.966,39.967,18.286,39.967Zm.551,1.57a1.4,1.4,0,0,1-1.349.991c-.771,0-.868-.537-.73-.991a1.4,1.4,0,0,1,1.349-.991C18.878,40.532,18.988,41.069,18.837,41.537Zm5.04-1.487H21.536L20.6,43.01H22.83a1.318,1.318,0,0,0,1.418-.9c.1-.317.014-.661-.33-.716v-.014a.928.928,0,0,0,.606-.592C24.689,40.256,24.331,40.05,23.877,40.05ZM23.353,42.1a.456.456,0,0,1-.468.344H21.632l.22-.7h1.157C23.312,41.743,23.422,41.867,23.353,42.1Zm.262-1.2a.412.412,0,0,1-.427.317H22l.207-.633h1.06C23.629,40.587,23.67,40.724,23.615,40.9Zm2.134,2.107h.84l.936-2.961h-.854Zm4.572-2.961h-.854l-.936,2.961h2.74l.193-.592h-1.9Zm2.713,2.961h.84l.936-2.961h-.854Zm3.415-2.4h1.157l-.757,2.4H37.7l.757-2.4h1.157l.179-.565H36.628Zm6.155.73-.4-1.294h-.991l.771,1.928-.33,1.033h.854l.33-1.033,1.983-1.928h-.991Zm4.654,1.666h2.933l.179-.565H48.291l.207-.675h1.955l.165-.537H48.663l.193-.606h2.065l.179-.565H48.181Zm6.582-.7-.193-2.258h-.936l.454,2.961h.9l2.313-2.961h-.936ZM59.9,39.967a2.281,2.281,0,0,0-2.437,1.57c-.193.62-.234,1.57,1.446,1.57a2.281,2.281,0,0,0,2.437-1.57C61.538,40.917,61.579,39.967,59.9,39.967Zm.551,1.57a1.388,1.388,0,0,1-1.349.991c-.771,0-.868-.537-.73-.991a1.388,1.388,0,0,1,1.349-.991C60.491,40.532,60.587,41.069,60.45,41.537Zm4.145-1.487h-.854L62.8,43.01h2.754l.193-.592h-1.9Zm5.7,1.694a.969.969,0,0,1-1.033.785c-.771,0-.633-.5-.551-.785l.537-1.694h-.84l-.606,1.9c-.11.33-.317,1.143,1.281,1.143s1.9-.812,2-1.143l.606-1.9h-.84Zm2.974-1.129h1.157l-.757,2.4h.854l.757-2.4h1.157l.179-.565H73.449Zm4.227,2.4h.854l.936-2.961h-.854Zm5.687-3.043a2.281,2.281,0,0,0-2.437,1.57c-.193.62-.234,1.57,1.446,1.57a2.281,2.281,0,0,0,2.437-1.57C84.836,40.917,84.864,39.967,83.184,39.967Zm.551,1.57a1.388,1.388,0,0,1-1.349.991c-.771,0-.867-.537-.73-.991A1.388,1.388,0,0,1,83,40.545C83.776,40.532,83.872,41.069,83.735,41.537Zm5.288.578h0l-.991-2.065H87.04L86.1,43.01h.826l.647-2.065h.014l1.047,2.065h.923L90.5,40.05H89.67ZM25.97,20.992H21.618l1.639-5.439h7.615l1.639-5.439H12.9l-1.639,5.439H17.79l-1.625,5.439H9.639L8,26.445h6.527L12.888,31.9l-1.212,4.048a1.093,1.093,0,0,0,1.047,1.4H24.317L25.956,31.9h-7.6l1.625-5.453h7.615l1.639-5.453ZM70.075,31.884H62.46L64.1,26.445l1.639-5.439,1.639-5.453h7.615l1.639-5.439H57.049L55.41,15.553h6.527L60.3,21.006,58.66,26.445l-1.639,5.439H50.494l-1.639,5.439H68.45ZM96.224,10.1l-1.639,5.439H90.234L91.859,10.1H86.42l-1.639,5.439H78.254l-1.639,5.453h6.527L81.5,26.431l-1.625,5.453-1.639,5.439h5.453l1.639-5.439,1.639-5.439,1.639-5.439h7.615l1.639-5.453L99.5,10.114H96.224ZM74.454,37.337a2.169,2.169,0,0,0,2.079-1.556l1.17-3.9,1.639-5.453H74.991l-1.639,5.453-1.639,5.453h2.74ZM91.322,26.445H90.234L88.6,31.9l-1.212,4.048a1.093,1.093,0,0,0,1.047,1.4h2.892L92.961,31.9,94.6,26.445H91.322Zm9.8-16.345-1.639,5.439h3.263L104.39,10.1ZM52.105,15.553l1.639-5.439H50.48l-1.639,5.439ZM48.842,10.1H45.578L43.94,15.553H47.2ZM40.125,26.445H47.2a2.169,2.169,0,0,0,2.079-1.556l1.17-3.9H38.487l1.639-5.439,1.639-5.439H36.325l-1.639,5.439-1.639,5.439-1.639,5.453L29.77,31.9l-1.639,5.453H45.551L47.189,31.9H35.237l1.639-5.453Z" transform="translate(-8 -10.1)" fill="#fff"/>
</svg>
