<svg xmlns="http://www.w3.org/2000/svg" width="95.739" height="56.454" viewBox="0 0 95.739 56.454">
  <g id="Group_979" data-name="Group 979" transform="translate(-532.051 -243.431)">
    <g id="Group_973" data-name="Group 973" transform="translate(538.07 243.431)">
      <g id="Group_972" data-name="Group 972">
        <path id="Path_6808" data-name="Path 6808" d="M553.683,263.707h7.1l-1.521,5.069h-10.8a1.014,1.014,0,0,1-.971-1.305l2.649-8.833h-6.082l1.521-5.069h6.082l1.521-5.069h-6.083l1.521-5.069h18.248l-1.521,5.069h-7.1l-1.521,5.069h7.1l-1.521,5.069h-7.1ZM599.3,248.5h7.1l1.521-5.069H589.672l-1.521,5.069h6.083l-4.562,15.207H583.59l-1.521,5.069h18.249l1.521-5.069h-7.1Zm29.907-5.069h-3.041l-1.521,5.069h-4.055l1.521-5.069h-5.069l-1.521,5.069h-6.082l-1.521,5.069H614l-4.562,15.207h5.069l4.562-15.207h7.1l1.521-5.069h0ZM606.4,258.638l-3.041,10.138h2.547a2.027,2.027,0,0,0,1.942-1.445l2.608-8.693Zm14.193,0-2.65,8.833a1.014,1.014,0,0,0,.971,1.305h2.693l3.042-10.138Zm10.138-15.207L629.21,248.5h3.041l1.521-5.069Zm-45.62,5.069,1.521-5.069H583.59l-1.521,5.069Zm-3.042-5.069h-3.041l-1.521,5.069h3.041Zm1.521,10.138H572.438l3.042-10.138H570.41l-7.6,25.345h16.221l1.521-5.069H569.4l1.521-5.069h9.643a2.028,2.028,0,0,0,1.942-1.445Z" transform="translate(-544.052 -243.431)" fill="#fff"/>
        <path id="Path_6809" data-name="Path 6809" d="M550.67,299.175h1.159l-.869,2.755H550.2l.7-2.207h-.008l-1.615,2.207h-.658l-.223-2.207h-.008l-.7,2.207h-.764l.869-2.755h1.159l.237,1.983Zm5.736,1.377a2.107,2.107,0,0,1-2.264,1.455c-1.562,0-1.528-.88-1.347-1.455a2.108,2.108,0,0,1,2.264-1.454C556.621,299.1,556.588,299.978,556.407,300.552Zm-1.512-.93a1.306,1.306,0,0,0-1.261.93c-.135.428-.041.93.675.93a1.306,1.306,0,0,0,1.261-.93C555.7,300.124,555.61,299.623,554.895,299.623Zm5.962.247a.851.851,0,0,1-.56.552l0,.008c.321.054.4.371.306.668a1.226,1.226,0,0,1-1.32.834h-2.07l.869-2.755h2.179C560.682,299.175,561.018,299.36,560.857,299.869Zm-1.4.88h-1.082l-.207.656h1.163a.44.44,0,0,0,.439-.324C559.836,300.865,559.73,300.749,559.453,300.749Zm.245-1.073h-.988l-.188.594h1.1a.386.386,0,0,0,.391-.3C560.066,299.8,560.023,299.677,559.7,299.677Zm2.3,2.253h.789l.869-2.755h-.789Zm4.254-2.755h-.789l-.869,2.755h2.558l.172-.548h-1.768Zm2.533,2.755h.788l.869-2.755h-.788Zm3.182-2.23h1.077l-.7,2.23h.789l.7-2.23h1.078l.165-.525h-2.943Zm5.726.675-.374-1.2h-.927l.719,1.794-.3.961h.789l.3-.961,1.851-1.794h-.927Zm4.324,1.555h2.728l.165-.525h-1.94l.2-.632H585l.159-.5h-1.826l.18-.571h1.923l.166-.525h-2.712Zm6.129-.656-.18-2.1H587.1l.421,2.755h.838l2.158-2.755h-.866Zm6.988-.722a2.108,2.108,0,0,1-2.264,1.455c-1.561,0-1.528-.88-1.347-1.455a2.108,2.108,0,0,1,2.264-1.454C595.349,299.1,595.315,299.978,595.134,300.552Zm-1.512-.93a1.306,1.306,0,0,0-1.261.93c-.135.428-.041.93.675.93a1.306,1.306,0,0,0,1.261-.93C594.432,300.124,594.338,299.623,593.622,299.623Zm4.543-.447h-.789l-.869,2.755h2.558l.173-.548h-1.769Zm5.294,1.582a.893.893,0,0,1-.964.725c-.724,0-.593-.455-.508-.725l.5-1.582H601.7l-.557,1.767c-.1.309-.295,1.065,1.189,1.065s1.763-.756,1.86-1.065l.558-1.767h-.789Zm2.779-1.057h1.077l-.7,2.23h.789l.7-2.23h1.078l.165-.525H606.4Zm3.93,2.23h.789l.868-2.755h-.788Zm6.641-1.378a2.107,2.107,0,0,1-2.264,1.455c-1.561,0-1.528-.88-1.347-1.455a2.107,2.107,0,0,1,2.264-1.454C617.024,299.1,616.991,299.978,616.809,300.552Zm-1.512-.93a1.306,1.306,0,0,0-1.261.93c-.135.428-.041.93.674.93a1.306,1.306,0,0,0,1.261-.93C616.107,300.124,616.013,299.623,615.3,299.623Zm5.6,1.474h-.008l-.919-1.921h-.915l-.869,2.755h.764l.606-1.921h.008l.976,1.921h.858l.869-2.755H621.5Z" transform="translate(-545.481 -271.18)" fill="#fff"/>
      </g>
    </g>
    <g id="Group_978" data-name="Group 978" transform="translate(532.051 276.831)">
      <path id="Path_6810" data-name="Path 6810" d="M556.218,310.144l-6.882,22.939H544.22l-.018-.067-3.723-14-4.22,14.066h-3.1a1.1,1.1,0,0,1-1.057-1.42l6.49-21.634h5.179l.017.069,3.451,14.7,4.43-14.765h4.587Zm16.086,4.434,1.365-4.549h-14.3l-6.882,22.939-.035.115h14.3l1.365-4.549h-9.5l1.352-4.507h6.055a2.1,2.1,0,0,0,2.028-1.509l.912-3.041h-7.631l1.47-4.9Zm23.681-4.549-1.365,4.549h6.233l-5.517,18.39-.035.115h4.8l5.552-18.5h6.233l1.365-4.549Z" transform="translate(-532.051 -310.029)" fill="#fff"/>
      <g id="Group_977" data-name="Group 977" transform="translate(37.1)">
        <g id="Group_974" data-name="Group 974" transform="translate(6.141)">
          <path id="Path_6811" data-name="Path 6811" d="M629.539,333.047a10.128,10.128,0,0,0-.45-7.468l-1.909-3.825-1.7-3.377-.661-1.369a9,9,0,0,1-.971-6.837l.041-.142h-5.081l0,.019a10,10,0,0,0,.417,7.463l3.71,7.981.216.519c.979,2.156,1.97,4.646,1.321,6.912l-.046.16h5.11Z" transform="translate(-618.271 -310.029)" fill="#fff"/>
        </g>
        <g id="Group_975" data-name="Group 975" transform="translate(0 12.753)">
          <path id="Path_6812" data-name="Path 6812" d="M611.3,345.754c.657-2.095,2.64-4.263,4.572-6.143l-1.929-4.155L611,338.12a16.353,16.353,0,0,0-4.91,7.447l-.06.192H611.3Z" transform="translate(-606.026 -335.457)" fill="#fff"/>
        </g>
        <g id="Group_976" data-name="Group 976" transform="translate(14.309)">
          <path id="Path_6813" data-name="Path 6813" d="M639.694,310.029c-.649,2.153-2.251,4.34-5.042,6.881l-.094.085,1.987,3.938,3.523-3.289a16.492,16.492,0,0,0,4.9-7.441l.055-.175Z" transform="translate(-634.558 -310.029)" fill="#fff"/>
        </g>
      </g>
    </g>
  </g>
</svg>
