<svg xmlns="http://www.w3.org/2000/svg" width="72.742" height="24.909" viewBox="0 0 72.742 24.909">
  <path id="mobievo" d="M11,34.313l-.2-1.611H9.871l-.707,2.234h.623l.561-1.787h.01l.177,1.787h.53l1.309-1.787h.01l-.561,1.787h.624l.707-2.234h-.935Zm4.759-1.673a1.721,1.721,0,0,0-1.839,1.185c-.145.468-.177,1.185,1.091,1.185a1.721,1.721,0,0,0,1.839-1.185C17.01,33.357,17.03,32.639,15.763,32.639Zm.416,1.185a1.058,1.058,0,0,1-1.018.748c-.582,0-.655-.405-.551-.748a1.058,1.058,0,0,1,1.018-.748C16.209,33.066,16.293,33.471,16.178,33.824Zm3.8-1.122H18.215l-.707,2.234h1.683a.994.994,0,0,0,1.07-.675c.073-.239.01-.5-.249-.54v-.01a.7.7,0,0,0,.457-.447C20.595,32.858,20.325,32.7,19.982,32.7Zm-.395,1.548a.344.344,0,0,1-.353.26h-.946l.166-.53h.873C19.556,33.98,19.639,34.074,19.587,34.25Zm.2-.9a.311.311,0,0,1-.322.239h-.894l.156-.478h.8C19.795,33.107,19.826,33.211,19.784,33.346Zm1.611,1.59h.634l.707-2.234h-.644Zm3.45-2.234H24.2l-.707,2.234h2.068l.145-.447H24.273Zm2.047,2.234h.634l.707-2.234h-.644Zm2.577-1.808h.873l-.572,1.808h.644l.572-1.808h.873l.135-.426H29.6Zm4.645.551-.3-.977h-.748l.582,1.455-.249.779h.644l.249-.779,1.5-1.455h-.748Zm3.512,1.257H39.84l.135-.426H38.406L38.562,34h1.476l.125-.405H38.687l.145-.457h1.559l.135-.426h-2.2Zm4.967-.53-.145-1.7h-.707l.343,2.234h.675L44.506,32.7H43.8Zm4.572-1.767a1.721,1.721,0,0,0-1.839,1.185c-.145.468-.177,1.185,1.091,1.185a1.721,1.721,0,0,0,1.839-1.185C48.4,33.357,48.434,32.639,47.166,32.639Zm.416,1.185a1.048,1.048,0,0,1-1.018.748c-.582,0-.655-.405-.551-.748a1.048,1.048,0,0,1,1.018-.748C47.613,33.066,47.686,33.471,47.582,33.824ZM50.71,32.7h-.644l-.707,2.234h2.078l.145-.447H50.149Zm4.3,1.278a.731.731,0,0,1-.779.592c-.582,0-.478-.374-.416-.592l.405-1.278h-.634l-.457,1.434c-.083.249-.239.863.966.863s1.434-.613,1.507-.863l.457-1.434h-.634Zm2.245-.852h.873l-.572,1.808H58.2l.572-1.808h.873l.135-.426h-2.39Zm3.19,1.808h.644L61.8,32.7h-.644Zm4.292-2.3A1.721,1.721,0,0,0,62.9,33.824c-.145.468-.177,1.185,1.091,1.185a1.721,1.721,0,0,0,1.839-1.185C65.986,33.357,66.006,32.639,64.739,32.639Zm.416,1.185a1.048,1.048,0,0,1-1.018.748c-.582,0-.655-.405-.551-.748a1.048,1.048,0,0,1,1.018-.748C65.185,33.066,65.258,33.471,65.154,33.824Zm3.99.436h0L68.4,32.7h-.748l-.707,2.234h.624l.488-1.559h.01l.79,1.559h.7l.707-2.234h-.624ZM21.561,18.32H18.277l1.237-4.1h5.747l1.237-4.1H11.7l-1.237,4.1h4.926l-1.226,4.1H9.237L8,22.435h4.926L11.689,26.55l-.914,3.055a.825.825,0,0,0,.79,1.06h8.75l1.237-4.115H15.815l1.226-4.115h5.747l1.237-4.115Zm33.285,8.22H49.1l1.237-4.1,1.237-4.1,1.237-4.115h5.747l1.237-4.1H45.015l-1.237,4.1H48.7L47.468,18.33l-1.237,4.1-1.237,4.1H40.069l-1.237,4.1H53.619ZM74.579,10.1l-1.237,4.1H70.059l1.226-4.1h-4.1l-1.237,4.1H61.018L59.782,18.32h4.926l-1.237,4.1L62.245,26.54l-1.237,4.1h4.115l1.237-4.1,1.237-4.1,1.237-4.1H74.58l1.237-4.115,1.237-4.1H74.579ZM58.15,30.655a1.637,1.637,0,0,0,1.569-1.174L60.6,26.54l1.237-4.115H58.556L57.319,26.54l-1.237,4.115H58.15Zm12.73-8.22h-.821L68.823,26.55l-.914,3.055a.825.825,0,0,0,.79,1.06H70.88l1.237-4.115,1.237-4.115H70.88Zm7.4-12.335-1.237,4.1h2.463l1.237-4.1ZM41.285,14.215l1.237-4.1H40.058l-1.237,4.1ZM38.822,10.1H36.359l-1.237,4.115h2.463ZM32.244,22.435h5.341a1.637,1.637,0,0,0,1.569-1.174l.883-2.941h-9.03l1.237-4.1,1.237-4.1h-4.1l-1.237,4.1L26.9,18.32l-1.237,4.115L24.429,26.55l-1.237,4.115H36.338l1.237-4.115h-9.02l1.237-4.115Z" transform="translate(-8 -10.1)" fill="#fff"/>
</svg>
