<svg xmlns="http://www.w3.org/2000/svg" width="61.822" height="36.454" viewBox="0 0 61.822 36.454">
  <g id="Group_985" data-name="Group 985" transform="translate(-532.051 -243.431)">
    <g id="Group_973" data-name="Group 973" transform="translate(535.938 243.431)">
      <g id="Group_972" data-name="Group 972">
        <path id="Path_6808" data-name="Path 6808" d="M550.271,256.524h4.583l-.982,3.273H546.9a.655.655,0,0,1-.627-.843l1.711-5.7h-3.927l.982-3.273h3.927l.982-3.273h-3.928l.982-3.273h11.783L557.8,246.7h-4.582l-.982,3.273h4.582l-.982,3.273h-4.582ZM579.73,246.7h4.582l.982-3.273H573.511l-.982,3.273h3.928l-2.946,9.819h-3.928L568.6,259.8h11.784l.982-3.273h-4.582Zm19.312-3.273h-1.964L596.1,246.7h-2.619l.982-3.273h-3.273L590.2,246.7h-3.928l-.982,3.273h3.928l-2.946,9.82h3.273l2.946-9.82h4.582l.982-3.273h0Zm-14.729,9.82-1.964,6.547h1.645a1.309,1.309,0,0,0,1.254-.933l1.684-5.614Zm9.165,0-1.711,5.7a.655.655,0,0,0,.627.843h1.739l1.964-6.547Zm6.546-9.82-.982,3.273h1.964l.982-3.273ZM570.565,246.7l.982-3.273h-1.964L568.6,246.7Zm-1.964-3.273h-1.964l-.982,3.273h1.964Zm.982,6.546h-7.2l1.964-6.546h-3.273L556.163,259.8h10.474l.982-3.273h-7.2l.982-3.273h6.227a1.309,1.309,0,0,0,1.254-.933Z" transform="translate(-544.052 -243.431)" fill="#fff"/>
        <path id="Path_6809" data-name="Path 6809" d="M549.341,299.148h.748l-.561,1.779h-.494l.449-1.425h-.005l-1.043,1.425h-.425l-.144-1.425h-.005l-.45,1.425h-.494l.561-1.779h.748l.153,1.28Zm3.7.889a1.361,1.361,0,0,1-1.462.939c-1.008,0-.987-.568-.87-.939a1.361,1.361,0,0,1,1.462-.939C553.184,299.1,553.162,299.666,553.046,300.037Zm-.976-.6a.843.843,0,0,0-.814.6c-.087.277-.027.6.435.6a.843.843,0,0,0,.814-.6C552.592,299.761,552.531,299.437,552.069,299.437Zm3.85.159a.55.55,0,0,1-.362.357l0,0c.207.035.258.239.2.431a.792.792,0,0,1-.852.538h-1.336l.561-1.779h1.408C555.806,299.148,556.023,299.267,555.919,299.6Zm-.906.568h-.7l-.133.423h.751a.284.284,0,0,0,.284-.209C555.26,300.239,555.191,300.164,555.013,300.164Zm.158-.693h-.638l-.121.384h.709a.249.249,0,0,0,.252-.192C555.408,299.551,555.381,299.472,555.171,299.472Zm1.486,1.455h.509l.561-1.779h-.509Zm2.747-1.779h-.509l-.561,1.779h1.652l.111-.354h-1.142Zm1.636,1.779h.509l.561-1.779H561.6Zm2.055-1.44h.7l-.454,1.44h.509l.454-1.44h.7l.107-.339h-1.9Zm3.7.436-.242-.775h-.6l.464,1.158-.2.62h.509l.2-.62,1.2-1.158h-.6Zm2.792,1h1.762l.107-.339H570.2l.129-.408h1.179l.1-.324H570.43l.116-.369h1.242l.107-.339h-1.751Zm3.958-.424-.116-1.355h-.56l.271,1.779h.541l1.393-1.779h-.559Zm4.512-.466a1.361,1.361,0,0,1-1.462.939c-1.008,0-.987-.568-.87-.939a1.361,1.361,0,0,1,1.462-.939C578.192,299.1,578.17,299.666,578.053,300.037Zm-.976-.6a.843.843,0,0,0-.814.6c-.087.277-.027.6.436.6a.843.843,0,0,0,.814-.6C577.6,299.761,577.539,299.437,577.077,299.437Zm2.933-.289h-.51l-.561,1.779h1.652l.111-.354h-1.142Zm3.418,1.021a.577.577,0,0,1-.623.468c-.468,0-.383-.294-.328-.468l.322-1.021h-.509l-.36,1.141c-.063.2-.19.688.768.688s1.138-.488,1.2-.688l.36-1.141h-.51Zm1.795-.683h.7l-.454,1.44h.509l.454-1.44h.7l.107-.339h-1.9Zm2.538,1.44h.509l.561-1.779h-.509Zm4.288-.89a1.36,1.36,0,0,1-1.462.939c-1.008,0-.987-.568-.87-.939a1.361,1.361,0,0,1,1.462-.939C592.188,299.1,592.167,299.666,592.049,300.037Zm-.976-.6a.843.843,0,0,0-.814.6c-.087.277-.027.6.435.6a.843.843,0,0,0,.814-.6C591.6,299.761,591.535,299.437,591.073,299.437Zm3.613.952h-.005l-.593-1.241H593.5l-.561,1.779h.494l.391-1.241h.005l.63,1.241h.554l.561-1.779h-.494Z" transform="translate(-545.991 -281.07)" fill="#fff"/>
      </g>
    </g>
    <g id="Group_978" data-name="Group 978" transform="translate(532.051 264.998)">
      <path id="Path_6810" data-name="Path 6810" d="M547.657,310.1l-4.444,14.812h-3.3l-.011-.043-2.4-9.039-2.725,9.083h-2a.712.712,0,0,1-.682-.917l4.191-13.97h3.344l.011.045,2.229,9.489,2.861-9.534h2.962Zm10.387,2.863.882-2.938h-9.236l-4.444,14.812-.022.075h9.235l.881-2.938H549.2l.873-2.91h3.91a1.359,1.359,0,0,0,1.31-.974l.589-1.964h-4.927l.949-3.164Zm15.291-2.938-.881,2.938h4.025l-3.563,11.875-.022.075h3.1l3.585-11.949H583.6l.881-2.938Z" transform="translate(-532.051 -310.029)" fill="#fff"/>
      <g id="Group_977" data-name="Group 977" transform="translate(23.956)">
        <g id="Group_974" data-name="Group 974" transform="translate(3.965)">
          <path id="Path_6811" data-name="Path 6811" d="M625.548,324.892a6.54,6.54,0,0,0-.291-4.822l-1.233-2.47-1.1-2.181-.427-.884a5.81,5.81,0,0,1-.627-4.415l.027-.092h-3.281l0,.012a6.454,6.454,0,0,0,.269,4.819l2.4,5.153.139.335c.632,1.392,1.272,3,.853,4.464l-.03.1h3.3Z" transform="translate(-618.271 -310.029)" fill="#fff"/>
        </g>
        <g id="Group_975" data-name="Group 975" transform="translate(0 8.235)">
          <path id="Path_6812" data-name="Path 6812" d="M609.431,342.106a11.07,11.07,0,0,1,2.952-3.966l-1.246-2.683-1.9,1.719a10.56,10.56,0,0,0-3.17,4.809l-.039.124h3.4Z" transform="translate(-606.026 -335.457)" fill="#fff"/>
        </g>
        <g id="Group_976" data-name="Group 976" transform="translate(9.24)">
          <path id="Path_6813" data-name="Path 6813" d="M637.875,310.029a10.443,10.443,0,0,1-3.256,4.443l-.061.055,1.283,2.543,2.275-2.124a10.65,10.65,0,0,0,3.167-4.805l.035-.113Z" transform="translate(-634.558 -310.029)" fill="#fff"/>
        </g>
      </g>
    </g>
  </g>
</svg>
