<svg xmlns="http://www.w3.org/2000/svg" width="52" height="42.868" viewBox="0 0 52 42.868"><path d="M65.955,39.5l1.839,1.964-7.4,9.329h-3.41L65.955,39.5m-36.84,1.8,2.04,1.619L25.467,44.54h7.309l16.048,20.22h4.134L34.339,41.3H29.115m.758,4.788H24.649l2.039,1.619L21,49.328h7.309L40.556,64.759H44.69L29.873,46.09M41.725,34.983l8.418,10.6,9.868-12.432-2.237-2.389-7.631,9.612-6.854-8.633H38.065L40.1,33.364l-5.688,1.619h7.309m8.418,15.811L38.806,36.513H33.582l2.039,1.619-5.687,1.619H37.26L50.143,56V50.794M65.95,39.5l-3.7-3.953-12.1,15.251H54.27l8.958-11.3H65.95m6.5,6.941-3.321-3.546L68,46.808l1.227,1.311L62.376,50.85l2.506,2.675a2.05,2.05,0,0,0,2.89.095l4.583-4.292a2.051,2.051,0,0,0,.095-2.891M48.2,21.891l5.341,8.661-3.4,4.279-3.9-4.916-.765-5.227,2.724-2.8m1.944,10.535,1.574-1.982L48.686,25.53l-1.371,1.408.346,2.363Z" transform="translate(-21 -21.891)" fill="#222" fill-rule="evenodd"/></svg>