<svg xmlns="http://www.w3.org/2000/svg" width="58.5" height="48.227" viewBox="0 0 58.5 48.227">
  <g id="Group_890" data-name="Group 890" transform="translate(-26 -27)">
    <path id="np_logo" d="M71.575,41.7l2.069,2.21-8.326,10.5H61.481L71.575,41.7M30.129,43.728l2.3,1.821-6.4,1.821h8.223L52.3,70.118h4.651L36.006,43.727H30.129m.853,5.387H25.105L27.4,50.937,21,52.758h8.223l6.529,8.226L43,70.118h4.651l-16.669-21m13.334-12.5,9.47,11.93,11.1-13.986-2.517-2.688L53.786,42.689l-7.711-9.712H40.2L42.492,34.8l-6.4,1.821h8.223m9.47,17.787L41.032,38.341H35.155l2.294,1.821-6.4,1.821h8.242L53.786,60.267v-5.86M71.569,41.7,67.4,37.25,53.786,54.407h4.643L68.507,41.7h3.062m7.313,7.809-3.736-3.989L73.88,49.923,75.26,51.4,67.548,54.47l2.819,3.009a2.306,2.306,0,0,0,3.251.107l5.156-4.829a2.308,2.308,0,0,0,.107-3.252M51.6,21.891l6.009,9.744-3.822,4.814L49.4,30.918l-.861-5.88L51.6,21.891m2.187,11.852,1.771-2.23-3.41-5.528L50.6,27.569l.389,2.658Z" transform="translate(5 5.109)" fill="#fff" fill-rule="evenodd"/>
  </g>
</svg>
