<svg xmlns="http://www.w3.org/2000/svg" width="374.209" height="472.375" viewBox="0 0 374.209 472.375"><g transform="translate(-1492.43 -52.106)"><path d="M1515.972,58.259c1.338,0,2.631.044,3.967,0,.581-.045,1.116-.09,1.7-.09,1.159,0,1.2.536,1.2,2.81,0,1.56-.089,2.006-1.293,2.006-1.873,0-3.7-.089-5.573-.089H1513.7a1.313,1.313,0,0,0-1.337,1.337v4.994a1.333,1.333,0,0,0,1.337,1.293h7.58c2.051,0,4.192-.089,5.8-.089,1.2,0,1.2.49,1.2,2.541,0,1.293,0,2.274-1.159,2.274-1.962,0-3.924-.089-5.841-.089h-7.669a1.237,1.237,0,0,0-1.248,1.2V80.15c0,3.389.223,3.478,5.038,3.478a58.909,58.909,0,0,0,7.491-.4,3.415,3.415,0,0,1,.669-.044c1.025,0,.936,1.649.936,2.318,0,2.675-.4,2.764-3.611,2.764-14.8,0-15.383-.223-15.383-7.356V76.45a1.293,1.293,0,0,0-1.293-1.293h-7c-1.872,0-3.7.089-5.573.089-1.2,0-1.2-.847-1.2-2.14,0-2.14.045-2.72,1.115-2.72,1.025,0,3.522.134,5.662.134h7a1.294,1.294,0,0,0,1.293-1.293V64.189a1.277,1.277,0,0,0-1.338-1.293h-2.228c-1.785,0-3.612.044-5.44.044-1.249,0-1.472-.223-1.472-1.649,0-2.854,0-3.122,1.427-3.122,1.739,0,3.612.09,5.573.09Zm27.821,19.618c0,5.394.892,5.306,7,5.306,4.414,0,10.611-.09,14.892-.937.133,0,.312-.044.446-.044.847,0,.891,1.114.891,2.452s0,2.452-1.426,2.63c-3.033.446-12.128.491-15.606.491-2.987,0-7.981.178-9.9-2.586-1.114-1.65-1.159-5.127-1.159-7.089V62.985a57.135,57.135,0,0,0-.223-6.2v-.357a.46.46,0,0,1,.49-.491c.446,0,3.434.624,4.058.758.579.134,1.338.223,1.338.669,0,.49-.669.624-.759,1.561-.044.312-.044,1.159-.044,1.961V67.4c0,.758.579,1.115,1.293,1.115,4.77,0,12.573-2.452,16.631-4.95a2.065,2.065,0,0,1,.713-.312c.4,0,1.2,1.2,1.739,2.051.134.179.223.313.311.446a7.484,7.484,0,0,1,1.205,2.051c0,.357-.4.446-.669.446-.179,0-.357-.044-.579-.044-.09,0-.224-.045-.313-.045a4.193,4.193,0,0,0-1.6.49,49.287,49.287,0,0,1-17.3,4.236c-.8.045-1.427.4-1.427,1.248Zm25.235-15.561c0,.669-1.738,1.828-2.273,1.828-.313,0-.491-.312-.669-.535a38.363,38.363,0,0,0-2.809-3.7c-.133-.179-.4-.447-.4-.669,0-.491,1.827-1.65,2.273-1.65C1565.685,57.59,1569.028,61.781,1569.028,62.316Zm4.637-2.854c0,.714-1.738,1.918-2.273,1.918-.268,0-.447-.312-.624-.535-.937-1.293-1.873-2.542-2.9-3.745-.134-.179-.356-.4-.356-.58,0-.58,1.828-1.694,2.273-1.694C1570.277,54.826,1573.665,58.972,1573.665,59.462ZM1588.3,70.654c0,2.006.089,4.057.089,6.063,0,1.383-.4,1.561-2.5,1.561s-2.676-.134-2.676-1.338c0-2.1.134-4.146.134-6.242V61.291c0-1.2-.089-2.363-.134-3.522,0-.268-.044-.536-.044-.8,0-.312.089-.446.4-.446.446,0,3.211.4,3.835.49.937.178,1.561.178,1.561.58a.992.992,0,0,1-.223.491,4.1,4.1,0,0,0-.491,2.586c0,.668.045,1.471.045,2.5Zm17.477-1.739a67.773,67.773,0,0,1-.49,9.5,15.134,15.134,0,0,1-5.439,10.344c-.758.624-4.1,3.121-4.9,3.121-.669,0-3.745-2.23-3.745-3.032,0-.4.847-.758,1.2-.936,4.37-2.274,7.179-4.816,7.937-9.854a55.74,55.74,0,0,0,.535-8.605V59.775a23.638,23.638,0,0,0-.134-3.077,4.349,4.349,0,0,1-.089-.758c0-.357.178-.445.535-.445a39.069,39.069,0,0,1,4.415.445c.356.089.891.134.891.536,0,.267-.179.4-.4.624a3.714,3.714,0,0,0-.313,1.917Zm40.57-.491c1.873,0,3.745-.133,5.663-.133,1.382,0,1.337.356,1.337,2.452,0,1.516,0,2.363-1.2,2.363-1.961,0-3.879-.089-5.8-.089h-5.841c-1.248,0-1.293,1.159-1.427,2.1-.98,6.287-4.013,10.969-9.631,14.045-.847.446-3.789,1.962-4.637,1.962-.98,0-3.432-2.943-3.432-3.7,0-.49.847-.668,1.248-.758a21.06,21.06,0,0,0,5.573-2.318,13.162,13.162,0,0,0,5.618-8.115,20.686,20.686,0,0,0,.4-2.185,1.048,1.048,0,0,0-1.071-1.025h-9.05c-1.829,0-3.7.089-5.574.089-1.159,0-1.2-.669-1.2-2.274,0-2.051.134-2.541,1.114-2.541,1.918,0,3.791.133,5.664.133Zm-6.6-11.681c1.917,0,3.835-.089,5.8-.089,1.2,0,1.159.579,1.159,2.764,0,1.382.045,2.006-1.2,2.006-1.873,0-3.79-.089-5.707-.089h-9.72c-1.918,0-3.835.089-5.707.089-1.338,0-1.2-.713-1.2-2.407,0-1.873.045-2.363,1.2-2.363,1.917,0,3.834.089,5.8.089ZM1677.938,85.9c0,1.516.09,2.988.09,4.5,0,1.115-.936,1.2-1.784,1.2-2.5,0-2.63-.223-2.63-1.426,0-1.383.089-2.809.089-4.192V76.762c0-.223-.089-.669-.535-.669-.4,0-.847.4-1.159.624-.981.714-6.42,4.325-7.313,4.325-.758,0-2.853-2.14-2.853-2.942,0-.491.535-.714,1.026-.937,6.465-3.032,13.821-8.248,17.522-14.4.223-.357.4-.8.758-.8a9.5,9.5,0,0,1,2.63,1.561c.447.268,1.249.758,1.249,1.337,0,.357-.312.491-.624.536a2.169,2.169,0,0,0-1.293.981,54.056,54.056,0,0,1-4.013,4.458,2.561,2.561,0,0,0-1.16,2.452Zm34.889-29.6c.357.089,1.159.223,1.159.713,0,.268-.178.4-.4.58-.848.624-.937,1.338-1.159,2.943-.09.49-.179,1.114-.313,1.828a2.207,2.207,0,0,0-.089.535.867.867,0,0,0,.981.892h.535c1.783,0,3.478,0,5.038.981,2.23,1.471,2.765,4.012,2.765,6.509,0,4.057-.714,10.076-2.675,13.643a9.112,9.112,0,0,1-8.427,4.816c-.981,0-1.6-.09-2.052-1.026a8.983,8.983,0,0,1-.8-3.21c0-.4.133-.758.624-.758.445,0,1.114.178,2.006.178,2.452,0,3.567-.535,4.681-2.764,1.293-2.541,2.007-7.178,2.007-10.076,0-2.185-.134-4.058-2.853-4.058-2.5,0-2.988.357-3.3,1.6a50.342,50.342,0,0,1-5.707,13.331,40.043,40.043,0,0,1-4.414,6.332,1.04,1.04,0,0,1-.758.446c-.8,0-3.656-1.695-3.656-2.72a1.673,1.673,0,0,1,.624-1.026,35.463,35.463,0,0,0,7.981-12.394,16.635,16.635,0,0,0,1.114-3.389.56.56,0,0,0-.579-.58,36.794,36.794,0,0,0-5.128,1.561,3.312,3.312,0,0,1-.935.312c-1.071,0-1.828-4.37-1.828-4.637,0-.669.757-.669,1.293-.714,2.5-.267,4.993-.891,7.445-1.337.891-.178,1.293-.446,1.427-1.382a41.233,41.233,0,0,0,.49-5.752c0-.713-.089-1.65-.089-1.739,0-.357.134-.669.535-.669C1708.814,55.271,1712.158,56.119,1712.827,56.3Zm18.548,14.758c0,1.026-2.81,2.675-3.7,2.675-.579,0-.847-.58-1.026-1.025a32.757,32.757,0,0,0-5.974-9.542,1.408,1.408,0,0,1-.4-.758c0-.8,2.453-2.274,3.166-2.274C1725.133,60.131,1731.375,69.94,1731.375,71.055Zm-.669-11.414c0,.713-1.56,2.051-2.141,2.051-.222,0-.445-.312-.624-.49a38.133,38.133,0,0,0-3.165-3.433c-.178-.179-.4-.4-.4-.625,0-.535,1.6-1.873,2.14-1.873C1726.961,55.271,1730.706,59.106,1730.706,59.641Zm4.235-3.165c0,.712-1.6,2.05-2.139,2.05-.268,0-.4-.223-.625-.49-1.026-1.2-2.051-2.319-3.165-3.433-.179-.134-.447-.4-.447-.624,0-.536,1.7-1.873,2.141-1.873C1731.2,52.106,1734.941,55.985,1734.941,56.476ZM1760.2,82.87a1.585,1.585,0,0,0-.891.357,46.293,46.293,0,0,1-14.981,8.516,7.053,7.053,0,0,1-1.962.49c-1.07,0-2.274-2.586-2.274-3.3,0-.758.714-.892,1.784-1.2a39.9,39.9,0,0,0,14.356-7.49,1.124,1.124,0,0,0,.491-.847,1.452,1.452,0,0,0-.357-.848,39.983,39.983,0,0,1-5.083-7.356,1.765,1.765,0,0,1-.223-.625c0-.713,2.854-2.318,3.478-2.318.4,0,.624.357.937.937a37.578,37.578,0,0,0,4.012,6.063,1.044,1.044,0,0,0,.8.49.956.956,0,0,0,.713-.445A26.839,26.839,0,0,0,1764.885,69c.178-.268.312-.624.669-.624a13.691,13.691,0,0,1,2.853,1.159c1.427.758,1.783.937,1.783,1.293s-.49.491-.757.58c-.758.133-.847.312-1.337,1.2a37.709,37.709,0,0,1-4.013,5.841,1.11,1.11,0,0,0-.357.8,1.076,1.076,0,0,0,.446.847,41.885,41.885,0,0,0,14.758,8.07c.446.134.98.357.98.892,0,.624-1.248,3.389-2.63,3.389-.758,0-4.681-1.829-5.573-2.274a47.711,47.711,0,0,1-10.611-6.912A1.379,1.379,0,0,0,1760.2,82.87Zm-6.42-20.777c-.267.045-.58.134-.58.446a.53.53,0,0,0,.358.446c.49.267,2.139,1.115,2.139,1.65,0,.446-.669.4-.98.446-.4,0-.624.312-.892.579A38.773,38.773,0,0,1,1745,73.24a2.889,2.889,0,0,1-1.383.579c-.98,0-2.675-1.872-2.675-2.675,0-.58.669-.847,1.071-1.07a33.413,33.413,0,0,0,8.515-7.089.667.667,0,0,0,.179-.4c0-.356-.312-.445-.625-.49h-2.809c-1.828,0-3.656.09-5.484.09-1.2,0-1.159-.447-1.159-2.141s-.044-2.14,1.159-2.14c1.828,0,3.656.089,5.484.089h9.185c.892,0,1.249-.356,1.249-1.248a19.16,19.16,0,0,0-.179-3.166c0-.134-.045-.267-.045-.4,0-.535.447-.624.893-.624.847,0,3.076.223,3.968.312.445.044,1.338.044,1.338.579,0,.312-.268.4-.58.625-.58.4-.58,1.114-.536,2.675,0,.892.357,1.248,1.249,1.248h9.363c1.828,0,3.656-.089,5.484-.089,1.2,0,1.159.491,1.159,2.14,0,1.694,0,2.141-1.159,2.141-1.828,0-3.656-.09-5.484-.09h-2.943c-.311.045-.579.134-.579.49a.789.789,0,0,0,.178.446,36.743,36.743,0,0,0,9.007,7.134c.267.179.579.357.579.713,0,.893-1.694,2.9-2.72,2.9-1.56,0-11.28-8.249-11.28-9.586,0-.446.8-.981,1.115-1.16a.559.559,0,0,0,.312-.446c0-.312-.223-.445-.535-.49Zm46.971-7.535c.267.089.535.268.535.535a.843.843,0,0,1-.312.58c-.536.535-.624.49-.8,2.363-.089.624-.312,2.675-.312,3.21,0,.49.178.58.669.669a5.9,5.9,0,0,1,1.739,2.407c0,.357-.4.669-.624.937-.536.579-2.185,2.675-2.185,3.433,0,.446.044.713.268.713.177,0,.445-.267.579-.4,3.3-2.854,6.777-5.306,11.325-5.306,6.063,0,10.388,5.083,10.388,10.969,0,6.732-5.038,11.012-10.834,13.375a13.217,13.217,0,0,1-3.656,1.07c-1.249,0-2.453-2.764-2.453-3.7,0-.758.535-.892,1.16-1.026,4.86-1.115,10.834-3.7,10.834-9.541,0-3.344-2.229-6.554-5.841-6.554-3.79,0-8.961,3.433-11.325,6.331a2.573,2.573,0,0,0-.535,1.783c0,2.631.045,5.262.179,7.847.045,1.249.312,5.485.312,5.975s-.4.758-3.344.758c-1.293,0-1.872-.045-1.872-.936,0-.357.044-1.2.044-1.427.044-1.382.134-3.3.134-3.522.044-1.427.044-2.9.044-4.325,0-.312-.089-.713-.445-.713s-.669.49-.892.713c-.847,1.025-2.676,3.344-3.344,4.369-.134.268-.357.625-.669.625-.8,0-3.344-2.586-3.344-3.434,0-.49.758-1.159,1.115-1.516,2.63-2.675,5.93-6.6,7.535-9.943a3.659,3.659,0,0,0,.268-1.738v-.58c0-.446-.179-.936-.714-.936a3.793,3.793,0,0,0-.758.134,46.537,46.537,0,0,1-4.726,1.07c-.624,0-.847-.58-1.026-1.07a18.455,18.455,0,0,1-.713-3.389c0-.669.446-.758,1.026-.758h.624a25.661,25.661,0,0,0,4.9-.446,1.694,1.694,0,0,0,1.383-.758,4.163,4.163,0,0,0,.222-1.828c0-1.515.089-3.032.089-4.548,0-.624-.045-1.114-.045-1.426,0-.491.224-.624.669-.624C1796.651,53.979,1800.219,54.424,1800.754,54.558ZM1855.59,60c0,.312-.49.579-.981.936a43.133,43.133,0,0,0-6.464,5.975,1.328,1.328,0,0,0-.447.758c0,.356.358.579.758.579a2.588,2.588,0,0,0,.58-.089,8.456,8.456,0,0,1,1.828-.178,13.093,13.093,0,0,1,5.485,1.337,9.216,9.216,0,0,1,5.305,8.65c0,7.891-7,11.993-14.178,11.993-3.7,0-8.962-1.515-8.962-6.063a5.6,5.6,0,0,1,5.707-5.4,7.272,7.272,0,0,1,5.929,3.166,4.431,4.431,0,0,1,.8,2.853c.045.312.179.58.535.58,1.159,0,5.4-2.363,5.4-6.867,0-4.324-3.655-6.108-7.534-6.108a13.537,13.537,0,0,0-9.988,4.37c-1.739,1.694-3.344,3.522-4.949,5.35a.6.6,0,0,1-.49.312c-.937,0-3.211-2.5-3.211-3.21,0-.535.669-1.026,1.07-1.338a178.381,178.381,0,0,0,13.866-14c.357-.357,1.16-1.159,1.16-1.6,0-.4-.4-.535-.758-.535a10.835,10.835,0,0,0-1.07.178c-1.07.268-7.357,1.561-8.071,1.561-.98,0-1.114-3.344-1.114-4.1,0-1.025.045-1.115,1.382-1.115h1.07c2.854,0,8.694-.624,11.28-1.649a6.067,6.067,0,0,1,1.695-.491C1853,55.851,1855.59,59.24,1855.59,60Zm-11.28,22.114a1.847,1.847,0,0,0-1.917,1.784c0,1.6,2.14,2.363,3.477,2.363.848,0,1.2-.8,1.2-1.516A2.725,2.725,0,0,0,1844.31,82.112Zm-7.543,54.018c0,5.395.891,5.306,7,5.306,4.414,0,10.611-.089,14.891-.936.134,0,.313-.045.446-.045.847,0,.892,1.115.892,2.452s0,2.452-1.427,2.631c-3.032.446-12.128.49-15.6.49-2.987,0-7.982.179-9.9-2.586-1.114-1.65-1.159-5.127-1.159-7.089V121.238a57.385,57.385,0,0,0-.222-6.2v-.357a.46.46,0,0,1,.49-.49c.446,0,3.433.624,4.057.758.58.133,1.338.223,1.338.669,0,.49-.669.624-.758,1.56-.044.312-.044,1.159-.044,1.962v6.509c0,.758.579,1.115,1.293,1.115,4.77,0,12.573-2.452,16.63-4.949a2.056,2.056,0,0,1,.713-.312c.4,0,1.2,1.2,1.74,2.051.133.178.222.312.311.446a7.45,7.45,0,0,1,1.2,2.051c0,.356-.4.446-.669.446-.178,0-.356-.045-.579-.045-.09,0-.223-.045-.312-.045a4.2,4.2,0,0,0-1.606.491,49.307,49.307,0,0,1-17.3,4.236c-.8.044-1.426.4-1.426,1.248ZM1862,120.569c0,.669-1.738,1.828-2.273,1.828-.313,0-.492-.312-.669-.535a38.373,38.373,0,0,0-2.81-3.7c-.133-.179-.4-.446-.4-.669,0-.491,1.828-1.65,2.273-1.65C1858.658,115.843,1862,120.035,1862,120.569Zm4.637-2.853c0,.713-1.739,1.917-2.274,1.917-.267,0-.446-.312-.624-.535-.936-1.293-1.873-2.541-2.9-3.745-.134-.178-.357-.4-.357-.58,0-.579,1.828-1.694,2.274-1.694C1863.251,113.079,1866.639,117.226,1866.639,117.716Zm-34.42,53.5c.624,0,5.35,2.942,6.242,3.477,1.471.937,2.809,1.6,2.809,2.274s-1.784,3.389-2.72,3.389a2.254,2.254,0,0,1-.981-.491,75.757,75.757,0,0,0-7.223-4.548c-.312-.133-.669-.356-.669-.712C1829.677,173.89,1831.327,171.215,1832.219,171.215Zm29.471-.223a16.293,16.293,0,0,1-.981,2.809,38.461,38.461,0,0,1-7.8,11.592c-4.146,4.058-9.808,7.045-15.248,9.051a2.488,2.488,0,0,0-1.471.936c-.178.224-.357.625-.669.625-.446,0-.8-.8-.936-1.16-.58-1.2-1.115-2.407-1.65-3.611a1.063,1.063,0,0,1-.089-.357c0-.356.579-.49.846-.535,1.383-.357,3.924-1.293,5.307-1.828a30.508,30.508,0,0,0,11.1-7c3.745-3.745,5.618-7.669,7.49-12.529.134-.4.312-.981.891-.981C1859.193,168,1861.69,170.189,1861.69,170.992Zm-18.37-5.93c.982.713,2.765,1.828,2.765,2.452,0,.8-1.873,3.255-2.72,3.255-.312,0-.8-.4-1.07-.58a66.771,66.771,0,0,0-6.51-4.681c-.311-.223-.8-.446-.8-.847,0-.714,1.962-3.121,2.721-3.121C1838.371,161.54,1842.518,164.482,1843.32,165.062Zm9.364-4.325a15.9,15.9,0,0,1,2.853,2.051c.624.535,1.783,1.516,1.783,1.873,0,.668-1.382,2.229-1.962,2.229-.267,0-.712-.535-1.069-.847-1.025-.981-2.1-1.828-3.166-2.72-.179-.134-.4-.312-.4-.535A3.841,3.841,0,0,1,1852.684,160.737Zm3.967-3.835c.492,0,4.682,3.345,4.682,3.924,0,.669-1.382,2.23-1.962,2.23-.223,0-.445-.223-.579-.357a40.222,40.222,0,0,0-3.611-3.121c-.179-.179-.491-.357-.491-.624C1854.69,158.463,1856.161,156.9,1856.651,156.9Zm-5.26,57.912a11.861,11.861,0,0,0,2.541-.134c.089,0,.223-.045.312-.045.981,0,2.943,2.453,2.943,2.988,0,.4-.536.8-.8,1.07a1.7,1.7,0,0,0-.4.4,76.11,76.11,0,0,1-7.446,6.777c-.936.713-.98,1.2-.98,2.363v9.007c0,1.694.089,3.388.089,5.082,0,1.516.043,1.65-2.854,1.65-1.783,0-2.051-.312-2.051-1.159,0-1.828.134-3.656.134-5.484v-6.064a.743.743,0,0,0-.714-.758,2.16,2.16,0,0,0-.936.357c-1.65,1.07-9.363,5.3-10.879,5.3-.981,0-2.943-2.452-2.943-3.343,0-.58.624-.8,1.071-.937a56.2,56.2,0,0,0,17.967-10.076c.447-.4,1.829-1.472,1.829-1.918,0-.624-.847-.49-1.427-.49h-8.338c-1.917,0-3.834.089-5.751.089-1.2,0-1.115-.758-1.115-2.541,0-1.6-.089-2.229,1.025-2.229.58,0,1.159.044,1.739.044,1.338.045,2.72.045,4.1.045Zm-4.414-6.6c.58.535,2.9,2.631,2.9,3.3,0,.757-2.141,2.808-2.9,2.808a1.582,1.582,0,0,1-1.071-.624,49.28,49.28,0,0,0-5.26-4.86c-.357-.267-.892-.624-.892-1.07,0-.668,2.228-2.809,2.987-2.809C1843.454,204.96,1846.308,207.591,1846.977,208.215Zm11.949,21.491c.579.535,3.076,2.853,3.076,3.522,0,.758-2.273,2.9-3.031,2.9-.535,0-.937-.58-1.249-.937a33.225,33.225,0,0,0-5.751-5.439c-.179-.178-.492-.446-.492-.713,0-.714,2.275-2.809,2.988-2.809S1858.257,229.082,1858.926,229.706Zm-7.223,28.887a11.88,11.88,0,0,0,1.917-.09c.268,0,.713-.088.981-.088.936,0,2.853,2.452,2.853,3.031a8.643,8.643,0,0,1-.98,1.739c-.268.4-.536.847-.714,1.159a64.564,64.564,0,0,1-5.8,8.472,1.216,1.216,0,0,0-.357.847,1.192,1.192,0,0,0,.669,1.07,71.578,71.578,0,0,1,7.535,5.751c1.07.937,2.185,1.962,3.21,3.033a.851.851,0,0,1,.312.624c0,.936-2.452,3.567-3.389,3.567a1.491,1.491,0,0,1-1.114-.669,47.444,47.444,0,0,0-9.853-8.829,1.573,1.573,0,0,0-1.026-.4,2.136,2.136,0,0,0-1.338.757,49.624,49.624,0,0,1-11.146,7.8,7.483,7.483,0,0,1-1.962.847c-.937,0-2.987-2.987-2.987-3.79,0-.535.535-.758.936-.891,7.892-3.033,15.382-9.854,19.886-16.9a4.4,4.4,0,0,0,.758-1.515c0-.669-.624-.759-1.293-.759h-9.23c-1.917,0-3.834.09-5.752.09-1.2,0-1.114-.669-1.114-2.72,0-1.561-.045-2.23,1.07-2.23,1.917,0,3.834.09,5.8.09Zm-7.535,44.092c.356.089,1.159.223,1.159.713,0,.268-.179.4-.4.58-.848.624-.937,1.337-1.159,2.942-.09.491-.179,1.115-.313,1.829a2.262,2.262,0,0,0-.089.534.867.867,0,0,0,.981.892h.535c1.783,0,3.477,0,5.038.981,2.229,1.471,2.765,4.013,2.765,6.51,0,4.057-.713,10.076-2.675,13.643a9.113,9.113,0,0,1-8.427,4.816c-.981,0-1.6-.09-2.052-1.026a8.963,8.963,0,0,1-.8-3.21c0-.4.133-.758.624-.758.445,0,1.114.178,2.005.178,2.453,0,3.568-.535,4.682-2.764,1.293-2.542,2.007-7.179,2.007-10.077,0-2.184-.134-4.057-2.854-4.057-2.5,0-2.987.357-3.3,1.6a50.359,50.359,0,0,1-5.707,13.331,40.047,40.047,0,0,1-4.415,6.332,1.039,1.039,0,0,1-.757.446c-.8,0-3.657-1.7-3.657-2.72a1.667,1.667,0,0,1,.624-1.026,35.445,35.445,0,0,0,7.982-12.395,16.728,16.728,0,0,0,1.114-3.388.559.559,0,0,0-.579-.58,36.792,36.792,0,0,0-5.128,1.561,3.311,3.311,0,0,1-.935.312c-1.071,0-1.829-4.37-1.829-4.638,0-.668.758-.668,1.293-.713,2.5-.267,4.994-.892,7.446-1.337.891-.179,1.293-.446,1.426-1.383a41.04,41.04,0,0,0,.491-5.751c0-.713-.089-1.65-.089-1.739,0-.357.134-.669.535-.669C1840.155,301.659,1843.5,302.506,1844.168,302.685Zm18.548,14.758c0,1.025-2.81,2.675-3.7,2.675-.579,0-.847-.58-1.026-1.026a32.748,32.748,0,0,0-5.974-9.541,1.408,1.408,0,0,1-.4-.758c0-.8,2.452-2.274,3.166-2.274C1856.474,306.519,1862.716,316.328,1862.716,317.443Zm-.669-11.414c0,.713-1.561,2.051-2.141,2.051-.222,0-.445-.312-.624-.491a38.417,38.417,0,0,0-3.165-3.433c-.179-.178-.4-.4-.4-.624,0-.535,1.6-1.873,2.139-1.873C1858.3,301.659,1862.047,305.494,1862.047,306.029Zm4.235-3.166c0,.713-1.6,2.051-2.139,2.051-.268,0-.4-.223-.625-.491-1.026-1.2-2.051-2.318-3.165-3.433-.179-.134-.447-.4-.447-.624,0-.535,1.695-1.872,2.141-1.872C1862.537,298.494,1866.282,302.373,1866.282,302.863Zm-24.968,52.072c.892,0,1.249-.357,1.249-1.2v-3.388c0-1.159-.089-2.363-.179-3.344,0-.134-.044-.312-.044-.446,0-.535.4-.624.847-.624.624,0,3.522.268,4.236.357.4.044,1.159.089,1.159.624,0,.312-.224.4-.58.669-.49.4-.535,1.248-.535,2.809v3.343c0,.848.4,1.2,1.249,1.2h7.579c1.828,0,3.656-.09,5.484-.09,1.159,0,1.071.58,1.071,2.319s.088,2.318-1.071,2.318c-1.828,0-3.656-.089-5.484-.089h-7.579c-.848,0-1.249.357-1.249,1.249v4.77c0,.892.4,1.249,1.249,1.249h5.662c1.783,0,3.566-.134,5.351-.134,1.2,0,1.159.624,1.159,2.274,0,1.694.044,2.318-1.159,2.318-1.785,0-3.568-.134-5.351-.134h-5.662c-.848,0-1.249.357-1.249,1.249V378.7c0,.847.4,1.2,1.249,1.2h9.228c1.828,0,3.7-.09,5.574-.09,1.2,0,1.115.58,1.115,2.319s.045,2.319-1.115,2.319c-1.872,0-3.7-.09-5.574-.09h-26.038c-1.828,0-3.7.09-5.573.09-1.159,0-1.114-.58-1.114-2.319,0-1.783-.045-2.319,1.114-2.319,1.873,0,3.745.09,5.573.09h9.408c.892,0,1.249-.357,1.249-1.2v-6.465c0-.892-.357-1.249-1.249-1.249h-5.529c-1.783,0-3.522.134-5.306.134-1.248,0-1.2-.579-1.2-2.318,0-1.7-.044-2.274,1.2-2.274,1.784,0,3.523.134,5.306.134h5.529c.892,0,1.249-.357,1.249-1.249v-4.77c0-.892-.357-1.249-1.249-1.249h-6.509a1.6,1.6,0,0,0-1.7,1.025c-.624,1.2-3.522,6.867-4.815,6.867-.8,0-3.389-1.115-3.389-2.1,0-.4.447-.892.669-1.159a36.735,36.735,0,0,0,6.866-15.471c.089-.491.134-1.16.714-1.16.312,0,1.783.4,2.185.491,2.139.58,2.9.669,2.9,1.2,0,.446-.49.669-.8.8-.714.357-.8.669-1.205,2.14-.133.446-.312,1.07-.535,1.784a.974.974,0,0,0-.045.357c0,.579.4.758.937.758Zm5.707,40.389c1.16.134,1.784.223,1.784.713,0,.847-.758.089-.848,3.7,0,.624.134,1.293.937,1.293.178,0,1.917-.268,2.229-.312a44.632,44.632,0,0,0,4.86-1.026,11.474,11.474,0,0,1,1.695-.357c.98,0,1.114,2.9,1.114,3.657,0,.891-.4.981-1.248,1.159-2.319.491-5.083.891-7.446,1.159-.937.134-2.007.089-2.007,1.338a14.676,14.676,0,0,0,.223,2.363c.089.267.178.713.713.713a37.668,37.668,0,0,0,5.707-1.07,2.889,2.889,0,0,1,.848-.178c.624,0,.758.981.758,2.675,0,1.471-.045,1.917-.848,2.1a39.284,39.284,0,0,1-4.592.757c-1.694.179-2.586.179-2.586,1.427,0,4.637.178,4.28,2.1,4.9,1.471.49,7.357,2.987,7.357,4.592,0,.981-1.472,3.255-2.542,3.255a2.44,2.44,0,0,1-1.382-.713c-.8-.625-3.745-2.72-4.637-2.72-.714,0-.8.668-.892.98-.936,3.835-4.459,4.95-8.07,4.95-3.567,0-7.446-1.65-7.446-5.8,0-4.5,4.86-5.929,8.56-5.929.536,0,1.561.089,1.829.089.757,0,.757-.8.757-1.249,0-1.426.09-3.076-1.025-3.076-.937,0-3.433.178-5.35.178-1.828,0-2.675.045-3.032-.758a9.24,9.24,0,0,1-.58-3.121c0-.535.134-.936.759-.936.534,0,3.031.223,4.725.223h2.007c1.65,0,2.274-.134,2.274-1.115,0-1.293-.045-3.121-1.2-3.121-1.561,0-5.127.223-7.536.223h-1.336c-1.2,0-2.319-.044-2.586-.4a7.906,7.906,0,0,1-.492-3.255c0-.624.045-1.248.8-1.248.937,0,4.682.356,6.866.356,3.924,0,5.039.089,5.039-1.115,0-.713-.267-3.7-.4-4.458a3.86,3.86,0,0,1-.09-.713c0-.446.268-.536.669-.536C1844.123,394.922,1846.219,395.235,1847.021,395.324Zm-9.943,29.6c0,1.516,2.007,1.783,3.166,1.783,2.051,0,3.79-.579,3.79-2.987,0-.847-1.07-.847-2.1-.847C1840.557,422.878,1837.078,423.012,1837.078,424.929Zm5.128,16.85c.223.089.49.223.49.491a1,1,0,0,1-.356.668c-.58.491-.535.625-.8,2.453-.089.757-.4,2.942-.4,3.566,0,.491.312.625.714.758a3.2,3.2,0,0,1,1.515,2.051c0,.178-.178.357-.267.491-.223.312-1.071,1.872-1.2,2.184a3.513,3.513,0,0,0-.089.714c0,.223.089.446.356.446.134,0,.268-.134.357-.223.936-.981,2.719-2.586,3.79-3.478,1.783-1.561,4.012-3.166,6.464-3.166a4.813,4.813,0,0,1,3.835,1.962,8.11,8.11,0,0,1,.8,4.236c0,2.318-.09,4.637-.223,6.911-.089,1.917-.223,3.923-.223,5.8,0,1.07-.045,2.631.98,2.631,1.2,0,3.121-1.918,3.924-2.81a1.279,1.279,0,0,1,.848-.49c.758,0,2.051,3.344,2.051,4.057,0,.625-1.65,1.784-2.141,2.14-1.783,1.293-4.057,2.586-6.286,2.586-3.745,0-4.1-4.324-4.1-7.133,0-4.013.58-8.07.58-12.083,0-.981,0-2.541-1.338-2.541-1.248,0-2.541,1.069-3.477,1.783a44.581,44.581,0,0,0-4.859,4.325,14.857,14.857,0,0,0-2.5,2.854c-.179.579,0,6.019,0,7.044,0,.268.088,1.6.133,2.363.089,1.828.223,4.236.223,4.726,0,.312.045.758-3.255.758-1.07,0-1.872,0-1.872-.891,0-.4.268-5.351.268-7.357,0-.223-.09-.58-.4-.58s-.625.669-1.07,1.337c-.49.8-1.873,3.211-2.318,4.058-.134.268-.313.535-.581.535-.757,0-3.343-2.185-3.343-2.943a4.779,4.779,0,0,1,.891-1.6c2.409-3.522,4.5-7.178,6.555-10.879a4.19,4.19,0,0,0,.534-2.1c0-.4.09-.8.09-1.159s-.179-.669-.58-.669a2.694,2.694,0,0,0-.8.223,30.819,30.819,0,0,1-5.394,1.827c-.713,0-1.071-.668-1.293-1.248a13.142,13.142,0,0,1-.937-3.032c0-.713.937-.713,1.472-.8,1.338-.178,7-1.159,7.535-2.23a2.894,2.894,0,0,0,.223-1.337c0-1.2.178-3.879.178-5.841,0-.535-.045-1.07-.045-1.382,0-.49.223-.624.714-.624S1841.76,441.645,1842.206,441.779Zm11.324,52.74c0,.312-.49.58-.98.937a43.129,43.129,0,0,0-6.465,5.974,1.327,1.327,0,0,0-.446.758c0,.356.357.58.757.58a2.6,2.6,0,0,0,.581-.09,8.455,8.455,0,0,1,1.828-.178,13.07,13.07,0,0,1,5.484,1.338,9.213,9.213,0,0,1,5.306,8.649c0,7.892-7,11.994-14.179,11.994-3.7,0-8.962-1.516-8.962-6.064a5.6,5.6,0,0,1,5.707-5.4,7.274,7.274,0,0,1,5.93,3.166,4.432,4.432,0,0,1,.8,2.854c.044.312.178.579.535.579,1.159,0,5.4-2.363,5.4-6.866,0-4.325-3.656-6.109-7.535-6.109a13.533,13.533,0,0,0-9.987,4.37c-1.739,1.694-3.345,3.522-4.949,5.35a.606.606,0,0,1-.491.313c-.936,0-3.211-2.5-3.211-3.211,0-.535.669-1.025,1.071-1.337a178.763,178.763,0,0,0,13.866-14c.356-.357,1.159-1.16,1.159-1.606,0-.4-.4-.535-.758-.535a10.654,10.654,0,0,0-1.07.179c-1.069.268-7.356,1.56-8.069,1.56-.982,0-1.116-3.344-1.116-4.1,0-1.025.045-1.114,1.382-1.114h1.071c2.853,0,8.694-.624,11.28-1.65a6.091,6.091,0,0,1,1.694-.49C1850.944,490.373,1853.53,493.761,1853.53,494.519Zm-11.28,22.115a1.847,1.847,0,0,0-1.917,1.783c0,1.6,2.141,2.363,3.478,2.363.847,0,1.2-.8,1.2-1.515A2.724,2.724,0,0,0,1842.25,516.634Z"/><path d="M1493.737,108.669h316.848V524.4" fill="none" stroke="#000" stroke-miterlimit="10" stroke-width="1.655"/></g></svg>