<svg xmlns="http://www.w3.org/2000/svg" width="161.993" height="61.138" viewBox="0 0 161.993 61.138">
  <path id="knt_logo" d="M677.284,275.164a12.721,12.721,0,0,0-1.532,1.02l-.175-.229a14.575,14.575,0,0,0-10.794-5.675q-.4-.019-.8-.019h-82.2v-1.78h82.2a17.73,17.73,0,0,1,7.768,1.771,13.672,13.672,0,0,1,4.843,4.017Zm25.43,24.818a14.575,14.575,0,0,1-10.794-5.675l-.045-.059a12.844,12.844,0,0,1-1.558.986l.581.759a13.675,13.675,0,0,0,4.843,4.016,17.728,17.728,0,0,0,7.768,1.771h33.536v3.13L743.781,300H703.51Q703.111,300,702.714,299.982ZM691.92,275.955a14.576,14.576,0,0,1,10.794-5.675q.4-.019.8-.019h40.272l-6.736-4.909v3.13H703.51c-.3,0-.6.008-.9.022a16.492,16.492,0,0,0-12.214,6.422l-.079.1a12.834,12.834,0,0,1,1.558.987Zm-16.343,18.351a14.574,14.574,0,0,1-10.794,5.675q-.4.02-.8.02h-82.2v1.779h82.2q.452,0,.9-.022a16.493,16.493,0,0,0,12.214-6.422l.182-.239a12.746,12.746,0,0,1-1.532-1.02Zm9.1-9.637a3.326,3.326,0,0,0-4.588,4.616c.926,1.528,2.673,2.056,4.671,1.89a7.354,7.354,0,0,0,5.124-2.654,5.674,5.674,0,0,0-.052-6.822,6.6,6.6,0,0,0-5.7-2.764c-2.37,0-4,1.639-5.133,2.871-1.758,1.915-2.558,2.337-4.07,2.453a4.986,4.986,0,0,1-3.609-1.136,11.979,11.979,0,0,1-1.083-1.15,9.157,9.157,0,0,0,1.973,2.31,5.516,5.516,0,0,0,5.1.719,18.344,18.344,0,0,0,4.488-2.567c1.625-.855,3.837-.159,4.307,1.376a3.255,3.255,0,0,1-.5,2.985,2,2,0,0,0-.932-2.129m17.228,7.725c2.836,0,4.589-1.714,4.589-4.9v-9.445h-2.229v9.207c0,2.271-1.061,3.307-2.641,3.307a4.859,4.859,0,0,1-1.774-.378l-.39,1.794A7.038,7.038,0,0,0,701.9,292.394Zm16.869,0a9.3,9.3,0,0,0,5.411-1.575l-.649-1.833a8.333,8.333,0,0,1-4.632,1.474c-3.42,0-5.779-2.292-5.779-5.38,0-3.069,2.359-5.3,5.779-5.3a7.4,7.4,0,0,1,4.307,1.414l.736-1.873a9.281,9.281,0,0,0-5.109-1.474c-4.61,0-8.008,2.969-8.008,7.253C710.827,289.364,714.139,292.394,718.771,292.394Zm18.916-14.349H727.1v1.814h4.22v12.335h2.208V279.859h4.156Zm-139.036,0H588.067v1.814h4.22v12.335H594.5V279.859h4.156Zm10.2,14.349c4.61,0,8.03-3.049,8.03-7.294s-3.42-7.253-8.008-7.253c-4.61,0-8.03,3.009-8.03,7.273S604.28,292.394,608.847,292.394Zm.022-1.933c-3.333,0-5.758-2.272-5.758-5.341,0-3.088,2.424-5.34,5.758-5.34s5.736,2.252,5.736,5.34C614.605,288.189,612.2,290.461,608.869,290.461Zm23.486,1.734-6.948-7.314,6.363-6.835h-2.662l-6.342,6.935v-6.935h-2.229v14.149h2.229V285.02l6.732,7.174ZM647.4,278.046h-2.229l-4.091,6.636-4.112-6.636h-2.446l5.346,8.549v5.6h2.187v-5.62Zm9.511,14.349c4.61,0,8.03-3.049,8.03-7.294s-3.42-7.253-8.008-7.253c-4.61,0-8.03,3.009-8.03,7.273S652.345,292.394,656.912,292.394Zm.022-1.933c-3.333,0-5.758-2.272-5.758-5.341,0-3.088,2.425-5.34,5.758-5.34s5.736,2.252,5.736,5.34C662.67,288.189,660.267,290.461,656.934,290.461ZM628.068,321.37a1.669,1.669,0,0,0-1.405.7V319.7h-.726v5.288h.726v-.633a1.593,1.593,0,0,0,1.367.7,1.842,1.842,0,1,0,.038-3.685Zm-.145,3.066a1.226,1.226,0,1,1,.008-2.447,1.224,1.224,0,1,1-.008,2.447Zm5.552-3-1.061,2.609-1.192-2.609h-.794l1.611,3.382-.206.436a.867.867,0,0,1-.878.612.993.993,0,0,1-.313-.049l-.1.591a1.794,1.794,0,0,0,.534.077,1.439,1.439,0,0,0,1.413-1.027l1.749-4.022Zm27.769-7.2a1.121,1.121,0,0,1,1.172,1.079v8.711a1.1,1.1,0,0,0,1.172,1.079h1.258v-7.277h.033l4.181,6.195a2.53,2.53,0,0,0,2.372,1.082h.953v-9.79a1.1,1.1,0,0,0-1.172-1.079h-1.258v7.292h-.033L665.7,315.29a2.287,2.287,0,0,0-1.9-1.045h-2.562m13.727,0a1.113,1.113,0,0,1,1.165,1.079,1.108,1.108,0,0,0,1.172,1.1h2.366v7.615a1.093,1.093,0,0,0,1.172,1.079h1.424V316.42h3.538v-1.1a1.118,1.118,0,0,0-1.172-1.079h-9.665m-20.534,9.79a1.12,1.12,0,0,0,1.172,1.079h1.424v-7.247a1.109,1.109,0,0,0-1.172-1.079h-1.424v7.248m-14.194-8.711v8.711a1.108,1.108,0,0,0,1.172,1.079h1.424v-4h0l3.255,3.051a2.994,2.994,0,0,0,2.365.953h1.892l-5.947-5.434,5.947-5.435h-3.241l-4.272,4h0l-.01-2.924a1.134,1.134,0,0,0-1.172-1.079h-2.586a1.169,1.169,0,0,1,1.172,1.079m53.846-1.338a5.713,5.713,0,1,1-6.184,5.694,5.954,5.954,0,0,1,6.184-5.694m3.813,5.694a3.827,3.827,0,1,0-3.813,3.511A3.672,3.672,0,0,0,697.9,319.68Zm-42.071-6.512a1.257,1.257,0,0,0-1.734,1.744,1.758,1.758,0,0,0,1.765.714,2.778,2.778,0,0,0,1.936-1,2.144,2.144,0,0,0-.019-2.578A2.5,2.5,0,0,0,655.628,311a2.706,2.706,0,0,0-1.94,1.085c-.664.724-.967.883-1.538.927a1.884,1.884,0,0,1-1.364-.429,4.54,4.54,0,0,1-.41-.435,3.465,3.465,0,0,0,.746.873,2.085,2.085,0,0,0,1.928.272,6.931,6.931,0,0,0,1.7-.97,1.163,1.163,0,0,1,1.628.52,1.231,1.231,0,0,1-.19,1.128.756.756,0,0,0-.352-.8" transform="translate(-581.788 -265.351)" fill="#fff"/>
</svg>
