<svg xmlns="http://www.w3.org/2000/svg" width="17.694" height="14.188" viewBox="0 0 17.694 14.188">
  <path id="Path_8" data-name="Path 8" d="M18.074,1.945a7.143,7.143,0,0,1-2.091.571A3.561,3.561,0,0,0,17.581.53a7.345,7.345,0,0,1-2.29.87A3.778,3.778,0,0,0,12.622.274,3.59,3.59,0,0,0,9,3.846a3.686,3.686,0,0,0,.078.827A10.365,10.365,0,0,1,1.607,1a3.379,3.379,0,0,0-.493,1.739A3.553,3.553,0,0,0,2.739,5.705,3.672,3.672,0,0,1,1.1,5.262V5.3A3.591,3.591,0,0,0,4.009,8.818a3.677,3.677,0,0,1-.968.128,3.616,3.616,0,0,1-.674-.068,3.611,3.611,0,0,0,3.378,2.49,7.382,7.382,0,0,1-4.5,1.7A5.81,5.81,0,0,1,.38,13a10.3,10.3,0,0,0,5.572,1.458A10.178,10.178,0,0,0,16.268,4.273V3.8A7.291,7.291,0,0,0,18.074,1.945Z" transform="translate(-0.38 -0.274)" fill="#fff" fill-rule="evenodd"/>
</svg>
